<svg id="Capa_1" data-name="Capa 1" xmlns="http://www.w3.org/2000/svg" viewBox="0 0 100 100"><title>socialMedia</title><rect x="16.39" y="16.12" width="69.71" height="69.71" rx="12" ry="12" transform="translate(-21.03 51.17) rotate(-45)" style="fill:#ccc;stroke:#333;stroke-miterlimit:10;stroke-width:2px"/><path d="M46.66,29.61a21,21,0,0,0-2.32,40.53c1,.18,1.44-.45,1.44-1s0-2.16,0-3.92c-5.28,1-6.65-1.28-7.07-2.47a7.57,7.57,0,0,0-2.16-3c-.73-.4-1.78-1.37,0-1.4s2.84,1.53,3.23,2.16c1.89,3.18,4.91,2.28,6.12,1.73a4.5,4.5,0,0,1,1.34-2.81c-4.67-.52-9.56-2.34-9.56-10.38a8.21,8.21,0,0,1,2.15-5.65A7.58,7.58,0,0,1,40,37.87s1.76-.55,5.78,2.16a19.8,19.8,0,0,1,10.51,0c4-2.73,5.78-2.16,5.78-2.16a7.53,7.53,0,0,1,.21,5.57,8.16,8.16,0,0,1,2.16,5.65c0,8.07-4.92,9.86-9.59,10.38a5,5,0,0,1,1.42,3.89c0,2.81,0,5.07,0,5.78,0,.55.39,1.21,1.44,1a21,21,0,0,0-11-40.53Z" style="fill:#333"/></svg>