<svg id="Capa_1" data-name="Capa 1" xmlns="http://www.w3.org/2000/svg" viewBox="0 0 100 100"><title>socialMedia</title><rect x="14.39" y="17.12" width="69.71" height="69.71" rx="12" ry="12" transform="translate(-22.32 50.04) rotate(-45)" style="fill:#ccc;stroke:#333;stroke-miterlimit:10;stroke-width:2px"/><g id="Page-1"><g id="Dribbble-Light-Preview"><g id="icons"><path id="linkedin-_161_" data-name="linkedin-[#161]" d="M72,69H63.8V54.66c0-3.94-1.73-6.13-4.85-6.13-3.38,0-5.39,2.28-5.39,6.13V69h-8.2V42.36h8.2v3a9.87,9.87,0,0,1,8.36-4.51C67.72,40.84,72,44.38,72,51.7V69ZM36,38.08a5,5,0,1,1,5-5,5,5,0,0,1-5,5ZM31,69H41.26V42.36H31Z" style="fill:#333"/></g></g></g></svg>