<svg id="Capa_1" data-name="Capa 1" xmlns="http://www.w3.org/2000/svg" viewBox="0 0 1920 1080"><title>FONDOS</title><path d="M125.9,796.32a53.36,53.36,0,0,1-25.07,6.24H72.33a53.44,53.44,0,0,1-53.44-53.44V720.63a52.89,52.89,0,0,1,9-29.62,142.57,142.57,0,0,0-41-6q-6.47,0-12.77.58A32.07,32.07,0,0,1-9.61,713.5V742a32.06,32.06,0,0,1-32.06,32.06A25,25,0,0,0-66.61,799v7.13a10.74,10.74,0,0,0,10.78,10.68,32.09,32.09,0,0,1,32,32.06v49.48c0,17.32-13.57,31.81-30.87,32.44a32.1,32.1,0,0,1-33.25-32v-7.12a10.67,10.67,0,0,0-10.65-10.69,67.53,67.53,0,0,1-45.69-17.71,67.7,67.7,0,0,1-9.05-10.13A142.54,142.54,0,0,0-13.17,970,141.88,141.88,0,0,0,69.6,943.51,32.13,32.13,0,0,1,47.39,913V898.75a10.71,10.71,0,0,0-10.64-10.69A32.09,32.09,0,0,1,4.67,854.57c.75-17.2,15.2-30.63,32.42-30.63H108A32,32,0,0,1,129.25,832c.05-1.5.08-3,.08-4.52A143,143,0,0,0,125.9,796.32Z" style="fill:#ccc;stroke:#ccc;stroke-miterlimit:10"/><path d="M48.48,699l-1.61,2.14a31.75,31.75,0,0,0-6.6,19.5v28.5a32.06,32.06,0,0,0,32.06,32.06h28.5a32,32,0,0,0,16.68-4.67l.44-.26,1.56-.85A143,143,0,0,0,48.48,699Z" style="fill:#ccc;stroke:#ccc;stroke-miterlimit:10"/><path d="M117.51,851.19a10.69,10.69,0,0,0-9.55-5.88h-71a10.83,10.83,0,0,0-10.87,9.87,10.7,10.7,0,0,0,10.66,11.51,32.09,32.09,0,0,1,32.06,32.06V913a10.69,10.69,0,0,0,10.69,10.69H92a142.35,142.35,0,0,0,30.47-52.3Z" style="fill:#ccc;stroke:#ccc;stroke-miterlimit:10"/><path d="M1145.31,441.58a71,71,0,0,0-39.6-92.24l-164.8-65.8a71,71,0,0,0-92.24,39.59h0l296.64,118.45Z" style="fill:#ccc;stroke:#ccc;stroke-miterlimit:10"/><circle cx="1047.12" cy="117.63" r="26.67" style="fill:#ccc;stroke:#ccc;stroke-miterlimit:10"/><path d="M1163.88,164.25l8.17-3.51L1112.43,21.87l-16.34,7L1085.84,5l-32.67,14,10.25,23.89-16.34,7,6.32,14.72a53.7,53.7,0,0,1,13.5,3.44,53.34,53.34,0,0,1,29.76,69.32,53.72,53.72,0,0,1-6.8,12.16l16.84,39.23,8.17-3.51,10.25,23.89,49-21Z" style="fill:#ccc;stroke:#ccc;stroke-miterlimit:10"/><path d="M1113.7,273a71.11,71.11,0,0,1-86.58-105.74,53,53,0,0,1-29.07-28.42,53.57,53.57,0,0,1-4-15.44,124.47,124.47,0,0,0-16.12,146.51l142.74,57.18a124.29,124.29,0,0,0,14.12-5.08Z" style="fill:#ccc;stroke:#ccc;stroke-miterlimit:10"/><path d="M1478.32,565.65c2.15-7.2,10.12-11.18,17.8-8.88L1366.5,518.05c-6.9-2.06-14.92,1.25-17.53,7.47-3.19,7.56,1.37,16.1,9.53,18.54l129.84,38.78C1480.65,580.54,1476.17,572.85,1478.32,565.65Z" style="fill:#ccc;stroke:#ccc;stroke-miterlimit:10"/><rect x="1441.52" y="410.79" width="22.62" height="58.07" transform="translate(615.61 1706.02) rotate(-73.37)" style="fill:#ccc;stroke:#ccc;stroke-miterlimit:10"/><path d="M1392.62,379.21l-37.31,124.92a30.26,30.26,0,0,1,14.92.65l129.57,38.7L1540,409.05l-129.57-38.7C1402.72,368.06,1394.77,372,1392.62,379.21Zm94.58,97.07-83.1-24.82,14.26-47.75,83.11,24.83Z" style="fill:#ccc;stroke:#ccc;stroke-miterlimit:10"/><rect x="650.09" y="903.29" width="61.71" height="82.28" transform="translate(-418.87 1326.61) rotate(-73.37)" style="fill:#ccc;stroke:#ccc;stroke-miterlimit:10"/><rect x="692.75" y="857.45" width="24.68" height="12.34" transform="translate(-324.2 1292.06) rotate(-73.37)" style="fill:#ccc;stroke:#ccc;stroke-miterlimit:10"/><path d="M736.21,860l-9.85-2.95-10.6,35.48L680.28,882l10.6-35.47-9.86-3a12.33,12.33,0,0,0-15.35,8.3l-11.78,39.42,78.84,23.55,11.78-39.43A12.34,12.34,0,0,0,736.21,860Z" style="fill:#ccc;stroke:#ccc;stroke-miterlimit:10"/><path d="M629.13,974l-4.71,15.77a28.8,28.8,0,0,1,19.35,35.84l-7.06,23.65,30.71-16.59a28.81,28.81,0,0,1,35.84-19.35L708,997.53Z" style="fill:#ccc;stroke:#ccc;stroke-miterlimit:10"/><path d="M387.44,551.59c19.71,86.87,115.85,101.72,162,45.35a10.6,10.6,0,0,0-.74-13.94l-36.52-36a10.38,10.38,0,0,1-.09-14.67l36-36.51a10.6,10.6,0,0,0,.57-13.95c-46.85-55.77-142.78-39.68-161.38,47.43A62.12,62.12,0,0,0,387.44,551.59Zm37.13,20.21a13.58,13.58,0,1,1,18.58,4.85A13.57,13.57,0,0,1,424.57,571.8Zm68.57,17.66A13.58,13.58,0,1,1,479.47,576,13.6,13.6,0,0,1,493.14,589.46Zm-45.38-67.6a13.58,13.58,0,1,1-5.09-18.52A13.57,13.57,0,0,1,447.76,521.86Zm44.73-32a13.58,13.58,0,1,1-13.66-13.49A13.57,13.57,0,0,1,492.49,489.89Z" style="fill:#ccc;stroke:#ccc;stroke-miterlimit:10"/><path d="M1935.14,295.67c-3.42,18.71-9.66,40.8-18,63.38s-18,43.72-27.6,60.23a70.11,70.11,0,0,0,45.57-123.61Z" style="fill:#ccc;stroke:#ccc;stroke-miterlimit:10"/><path d="M1876.93,418.06c-.32.53-.64,1-1,1.56-11.55,18.46-18.59,22.63-20.36,22.7-.34-.36-1.82-2.34-2.22-9.23a83.24,83.24,0,0,1,.2-10.64,82.45,82.45,0,0,1-11.11-6.62c-2.58,22,.42,34.29,9.07,37.48a12.71,12.71,0,0,0,10-.74c6.78-3.13,14.4-11.34,23-24.77,1.73-2.68,3.46-5.53,5.2-8.52A69.39,69.39,0,0,1,1876.93,418.06Z" style="fill:#ccc;stroke:#ccc;stroke-miterlimit:10"/><path d="M1928.19,245.06c-8.65-3.18-18.9,4.24-31.2,22.66a82.25,82.25,0,0,1,12.75,2.16,81.06,81.06,0,0,1,6.71-8.19c4.8-5,7.21-5.58,7.71-5.64,1.3,1.21,4,8.95.78,30.5-.08.6-.18,1.2-.27,1.81a69.65,69.65,0,0,1,10.59,7.41c.62-3.4,1.14-6.69,1.57-9.85C1940.08,261.76,1937.26,248.4,1928.19,245.06Z" style="fill:#ccc;stroke:#ccc;stroke-miterlimit:10"/><path d="M1914.07,283.42A70.08,70.08,0,0,0,1865.66,415a70.9,70.9,0,0,0,11.06,3.07c10.13-16.5,20.57-38.79,29.49-63s15.33-47.66,18.33-66.73A70.47,70.47,0,0,0,1914.07,283.42Zm-28.14,80.45a17.52,17.52,0,1,1,8.56-23.25A17.52,17.52,0,0,1,1885.93,363.87Zm-4.73-53.13a7.79,7.79,0,0,1-10,4.61,7.79,7.79,0,0,1-4.62-10,7.78,7.78,0,1,1,14.61,5.38Z" style="fill:#ccc;stroke:#ccc;stroke-miterlimit:10"/><circle cx="1878.58" cy="347.97" r="5.84" style="fill:#ccc;stroke:#ccc;stroke-miterlimit:10"/><rect x="124.19" y="103.41" width="242.65" height="32" transform="translate(-19.71 184.15) rotate(-39.66)" style="fill:#ccc;stroke:#ccc;stroke-miterlimit:10"/><path d="M152.64-7.25,132.22-31.89,117.44-19.64,137.86,5,71.34,60.13l77.6,93.61L296.75,31.22l-77.6-93.61ZM254.93,41,220.45,69.54,208.19,54.75l34.49-28.58Z" style="fill:#ccc;stroke:#ccc;stroke-miterlimit:10"/><polygon points="209.09 194.62 217.86 239.51 236.68 235.84 225.91 180.68 209.09 194.62" style="fill:#ccc;stroke:#ccc;stroke-miterlimit:10"/><polygon points="326.12 97.62 309.3 111.56 361.5 132.37 368.6 114.56 326.12 97.62" style="fill:#ccc;stroke:#ccc;stroke-miterlimit:10"/><rect x="265.99" y="143.32" width="19.2" height="25.6" transform="translate(-36.22 211.8) rotate(-39.66)" style="fill:#ccc;stroke:#ccc;stroke-miterlimit:10"/><path d="M1243.54,887.92a12.89,12.89,0,0,0,4.74,17.59l93.12,53.57a12.89,12.89,0,0,1-4.75-17.6l24.66-42.84-93.11-53.57Z" style="fill:#ccc;stroke:#ccc;stroke-miterlimit:10"/><path d="M1224.33,921.31l-24.65,42.84,93.1,53.57,24.65-42.84a12.91,12.91,0,0,1,17.61-4.75l-93.1-53.57A12.91,12.91,0,0,0,1224.33,921.31Z" style="fill:#ccc;stroke:#ccc;stroke-miterlimit:10"/><path d="M1285.82,840.49l93.1,53.57-24.83,43.14a13,13,0,0,0,4.78,17.73l37.78-65.65-104.36-60Z" style="fill:#ccc;stroke:#ccc;stroke-miterlimit:10"/><path d="M1322.5,992.11l-24.82,43.14-93.1-53.57-6.48,11.25L1302.46,1053l37.77-65.65A13,13,0,0,0,1322.5,992.11Z" style="fill:#ccc;stroke:#ccc;stroke-miterlimit:10"/><path d="M1899.42,859.84l10.8-3.81-103.38-71.21-118.66,40.94L1791.56,897l91.71-31.64-4.58,33.59a10.18,10.18,0,1,0,16.74,9.06,10.74,10.74,0,0,0-1.48-7l5.61-41.14Z" style="fill:#ccc;stroke:#ccc;stroke-miterlimit:10"/><path d="M1789.15,913.92l-65.78-45.31-10,73.66c-2.66,19.51,26.81,39.63,65.82,45s72.8-6.19,75.46-25.69l10-73.66Z" style="fill:#ccc;stroke:#ccc;stroke-miterlimit:10"/><rect x="1566.09" y="-9.71" width="61.71" height="82.28" transform="translate(1109.79 1552.59) rotate(-73.37)" style="fill:#ccc;stroke:#ccc;stroke-miterlimit:10"/><path d="M1652.21-53l-9.85-2.95-10.6,35.48L1596.28-31l10.6-35.47-9.86-3a12.33,12.33,0,0,0-15.35,8.3l-11.78,39.42,78.84,23.55,11.78-39.43A12.34,12.34,0,0,0,1652.21-53Z" style="fill:#ccc;stroke:#ccc;stroke-miterlimit:10"/><path d="M1545.13,61l-4.71,15.77a28.8,28.8,0,0,1,19.35,35.84l-7.06,23.65,30.71-16.59a28.81,28.81,0,0,1,35.84-19.35L1624,84.53Z" style="fill:#ccc;stroke:#ccc;stroke-miterlimit:10"/><path d="M964.41,573.94A56.72,56.72,0,0,1,1005,643.05L996.1,677l-23.88-6.23,12.91-7.57,5-19.29-36.41,21.35a55.78,55.78,0,0,1-13.58-8.37l52.47-30.78a42,42,0,0,0-3.45-14.31l-58.83,34.5a57,57,0,0,1-6.7-12.42L981.47,600a42,42,0,0,0-12.22-9.18l-49.08,28.79a56,56,0,0,1,1.5-20.26l-13.82-3.6a70.57,70.57,0,0,0,50.45,86l31.84,8.3-8.06,30.92a69.17,69.17,0,0,0,49.44,84.26l3.5-13.42a55.07,55.07,0,0,1-39.35-67.1l8.67-33.24,24.11,6.28-13.2,7.75-5,19.3,36.47-21.41a54.35,54.35,0,0,1,13.21,8.6l-51.72,30.35a40.89,40.89,0,0,0,3.93,14l57.24-33.59a55.64,55.64,0,0,1,6.28,12.67l-55.24,32.41a40.47,40.47,0,0,0,13.2,8.6l45-26.37a54.78,54.78,0,0,1-1.68,17.11l13.5,3.52A69.16,69.16,0,0,0,1041,686.39l-30.92-8,8.3-31.84a70.57,70.57,0,0,0-50.41-86Z" style="fill:#ccc;stroke:#ccc;stroke-miterlimit:10"/></svg>