<svg id="Capa_1" data-name="Capa 1" xmlns="http://www.w3.org/2000/svg" viewBox="0 0 1920 1080"><title>FONDOS</title><rect x="485.83" y="932.29" width="150.84" height="19.89" transform="translate(-222.91 175.49) rotate(-14.86)" style="fill:#ccc;stroke:#ccc;stroke-miterlimit:10"/><path d="M541.86,846.54l-5.1-19.22-11.54,3.06,5.1,19.22-51.91,13.78,19.39,73.06,115.35-30.62-19.38-73.05ZM587,900.41l-26.91,7.14L557.05,896,584,888.88Z" style="fill:#ccc;stroke:#ccc;stroke-miterlimit:10"/><polygon points="521.09 975.19 514.34 1002.8 525.92 1005.64 534.22 971.7 521.09 975.19" style="fill:#ccc;stroke:#ccc;stroke-miterlimit:10"/><polygon points="612.42 950.95 599.3 954.43 623.33 979.78 631.98 971.58 612.42 950.95" style="fill:#ccc;stroke:#ccc;stroke-miterlimit:10"/><rect x="562.69" y="962.84" width="11.93" height="15.91" transform="translate(-229.99 178.35) rotate(-14.86)" style="fill:#ccc;stroke:#ccc;stroke-miterlimit:10"/><path d="M1054.25,663.39c5.31-5.32,14.21-5,19.88.64l-95.66-95.66c-5.09-5.09-13.71-6-19-1.75-6.39,5.14-6.44,14.81-.41,20.84l95.81,95.81C1049.22,677.6,1048.93,668.7,1054.25,663.39Z" style="fill:#ccc;stroke:#ccc;stroke-miterlimit:10"/><rect x="1080.3" y="511.53" width="22.62" height="58.07" transform="translate(-62.52 930.21) rotate(-45)" style="fill:#ccc;stroke:#ccc;stroke-miterlimit:10"/><path d="M1067.43,458.62l-92.19,92.19a30.32,30.32,0,0,1,12.82,7.66l95.62,95.62,99.2-99.21-95.62-95.62C1081.61,453.61,1072.73,453.32,1067.43,458.62ZM1104.53,589l-61.33-61.33,35.23-35.24,61.33,61.33Z" style="fill:#ccc;stroke:#ccc;stroke-miterlimit:10"/><path d="M554.2,310.36a39.37,39.37,0,0,1,28.14,48L576.2,381.9l-16.58-4.32,9-5.26,3.49-13.39L546.8,373.76a38.88,38.88,0,0,1-9.43-5.82l36.43-21.37a29.21,29.21,0,0,0-2.4-9.93l-40.84,23.95a39.63,39.63,0,0,1-4.65-8.62l40.14-23.54a29.17,29.17,0,0,0-8.49-6.37l-34.07,20a39,39,0,0,1,1-14.07l-9.59-2.5a49,49,0,0,0,35,59.7l22.1,5.76-5.59,21.46a48,48,0,0,0,34.32,58.5l2.43-9.32A38.23,38.23,0,0,1,575.9,415l6-23.08,16.74,4.36-9.17,5.38L586,415.06l25.33-14.86a37.75,37.75,0,0,1,9.16,6l-35.91,21.07a28.42,28.42,0,0,0,2.74,9.75l39.73-23.32a38.33,38.33,0,0,1,4.36,8.79L593.07,445a28.22,28.22,0,0,0,9.16,6l31.2-18.32a38,38,0,0,1-1.16,11.88l9.37,2.45a48,48,0,0,0-34.3-58.52l-21.47-5.59,5.77-22.11a49,49,0,0,0-35-59.71Z" style="fill:#ccc;stroke:#ccc;stroke-miterlimit:10"/><path d="M2065.9,796.32a53.36,53.36,0,0,1-25.07,6.24h-28.5a53.44,53.44,0,0,1-53.44-53.44V720.63a52.89,52.89,0,0,1,9-29.62,142.57,142.57,0,0,0-41-6q-6.46,0-12.77.58a32.07,32.07,0,0,1,16.33,27.92V742a32.06,32.06,0,0,1-32.06,32.06A25,25,0,0,0,1873.39,799v7.13a10.74,10.74,0,0,0,10.78,10.68,32.09,32.09,0,0,1,32,32.06v49.48c0,17.32-13.57,31.81-30.87,32.44a32.1,32.1,0,0,1-33.25-32v-7.12a10.67,10.67,0,0,0-10.65-10.69,67.55,67.55,0,0,1-54.74-27.84,142.53,142.53,0,0,0,223,90.41A32.13,32.13,0,0,1,1987.39,913V898.75a10.71,10.71,0,0,0-10.64-10.69,32.09,32.09,0,0,1-32.08-33.49c.75-17.2,15.2-30.63,32.42-30.63H2048a32,32,0,0,1,21.29,8.08c.05-1.5.08-3,.08-4.52A143,143,0,0,0,2065.9,796.32Z" style="fill:#ccc;stroke:#ccc;stroke-miterlimit:10"/><path d="M1898.33,702.81h-40.54a143.05,143.05,0,0,0-62.77,70.3l.19,45.09a46.11,46.11,0,0,0,46,41.36,32,32,0,0,1,32.16,31.87v7.1a10.84,10.84,0,0,0,9.87,10.88,10.7,10.7,0,0,0,11.51-10.66V848.87A10.74,10.74,0,0,0,1884,838.19a32.1,32.1,0,0,1-32-32.07V799a46.36,46.36,0,0,1,46.28-46.31A10.73,10.73,0,0,0,1909,742V713.5A10.7,10.7,0,0,0,1898.33,702.81Z" style="fill:#ccc;stroke:#ccc;stroke-miterlimit:10"/><rect x="141.8" y="576.66" width="61.71" height="82.28" transform="translate(-386.28 303.03) rotate(-45)" style="fill:#ccc;stroke:#ccc;stroke-miterlimit:10"/><rect x="219.95" y="551.99" width="24.68" height="12.34" transform="translate(-326.64 327.74) rotate(-45)" style="fill:#ccc;stroke:#ccc;stroke-miterlimit:10"/><path d="M261.39,569.8l-7.28-7.27-26.18,26.18-26.18-26.18,26.18-26.19-7.27-7.27a12.35,12.35,0,0,0-17.46,0l-29.09,29.09,58.18,58.19,29.1-29.1A12.35,12.35,0,0,0,261.39,569.8Z" style="fill:#ccc;stroke:#ccc;stroke-miterlimit:10"/><path d="M113,619.18l-11.64,11.64a28.78,28.78,0,0,1,0,40.72L83.93,689h34.91a28.78,28.78,0,0,1,40.72,0l11.64-11.64Z" style="fill:#ccc;stroke:#ccc;stroke-miterlimit:10"/><g id="SVGRepo_iconCarrier" data-name="SVGRepo iconCarrier"><path d="M1040.49,24.2,951,199.49l111.61,57a71.51,71.51,0,0,0,96.19-31.19l57-111.61Zm57.2,189.93-85-43.39,16.33-32,85,43.38-16.33,32Zm32.42-63.53-85-43.39,16.33-32,85,43.39-16.33,32Z" style="fill:#ccc;stroke:#ccc;stroke-miterlimit:10"/><path d="M833.19-81.59,776.24,30a71.51,71.51,0,0,0,31.19,96.19l111.61,57L1008.49,7.87ZM920.82,89.78l-34,11L876.73,69.72,845.64,79.8l-11-34,31.09-10.08L855.63,4.63l34-11,10.08,31.09L930.8,14.61l11,34L910.74,58.7Z" style="fill:#ccc;stroke:#ccc;stroke-miterlimit:10"/><path d="M1257.64-125.67,1146-182.62,1056.58-7.33l175.3,89.45,56.95-111.61A71.5,71.5,0,0,0,1257.64-125.67ZM1211.27-8.46l-85-43.38,16.33-32,85,43.39-16.33,32Z" style="fill:#ccc;stroke:#ccc;stroke-miterlimit:10"/></g><path d="M1551.14,964.17a26.79,26.79,0,0,0-14.94-34.82L1474,904.52a26.79,26.79,0,0,0-34.82,14.94h0l112,44.71Z" style="fill:#ccc;stroke:#ccc;stroke-miterlimit:10"/><circle cx="1514.08" cy="841.9" r="10.07" style="fill:#ccc;stroke:#ccc;stroke-miterlimit:10"/><path d="M1558.15,859.49l3.09-1.32-22.51-52.42-6.16,2.65-3.87-9-12.33,5.29,3.87,9-6.17,2.64,2.39,5.56a20.49,20.49,0,0,1,5.09,1.3,20.14,20.14,0,0,1,8.66,30.75l6.36,14.81,3.08-1.33,3.87,9,18.5-7.94Z" style="fill:#ccc;stroke:#ccc;stroke-miterlimit:10"/><path d="M1539.21,900.53a26.84,26.84,0,0,1-32.68-39.91,20,20,0,0,1-11-10.73,20.34,20.34,0,0,1-1.52-5.82,47,47,0,0,0-6.09,55.3L1541.83,921a46.42,46.42,0,0,0,5.32-1.92Z" style="fill:#ccc;stroke:#ccc;stroke-miterlimit:10"/><path d="M1708.67,122l8.44.8-47.39-80-92.52-9.33,47.4,80,71.5,7.21-13.51,21.17a7.45,7.45,0,0,0-4.28,3.17,7.55,7.55,0,1,0,12.72,8.12,8,8,0,0,0,1.18-5.15l16.55-25.93Z" style="fill:#ccc;stroke:#ccc;stroke-miterlimit:10"/><path d="M1617.72,124.12l-30.16-50.89-29.63,46.41c-7.85,12.29,5.72,35,30.3,50.67s50.87,18.45,58.72,6.16l29.63-46.42Z" style="fill:#ccc;stroke:#ccc;stroke-miterlimit:10"/><path d="M1558.63,409.07a12.87,12.87,0,0,0-3.07,17.95l62.06,87.68a12.9,12.9,0,0,1,3.08-18L1661,468.17l-62-87.67Z" style="fill:#ccc;stroke:#ccc;stroke-miterlimit:10"/><path d="M1527.19,431.32l-40.35,28.56,62.06,87.67L1589.24,519a12.9,12.9,0,0,1,18,3.07l-62.06-87.68A12.89,12.89,0,0,0,1527.19,431.32Z" style="fill:#ccc;stroke:#ccc;stroke-miterlimit:10"/><path d="M1616.89,383.74,1679,471.41l-40.63,28.75a13,13,0,0,0-3.09,18.1l61.82-43.76-69.56-98.27Z" style="fill:#ccc;stroke:#ccc;stroke-miterlimit:10"/><path d="M1586.62,536.76,1546,565.51l-62.06-87.67-10.6,7.5,69.56,98.27,61.82-43.76A13,13,0,0,0,1586.62,536.76Z" style="fill:#ccc;stroke:#ccc;stroke-miterlimit:10"/><path d="M101.06,132.67c-23.93,85.81,53.6,144.55,121,116.88a10.61,10.61,0,0,0,6-12.63l-15-49.06a10.39,10.39,0,0,1,6.89-13l49.06-15a10.6,10.6,0,0,0,7.13-12C261.36,76.56,169.3,45.13,111.55,113A62.06,62.06,0,0,0,101.06,132.67Zm23.07,35.43a13.58,13.58,0,1,1,14,13.09A13.57,13.57,0,0,1,124.13,168.1Zm51.94,48.12a13.58,13.58,0,1,1-5.62-18.37A13.58,13.58,0,0,1,176.07,216.22Zm-7.8-81a13.58,13.58,0,1,1,4.32-18.71A13.58,13.58,0,0,1,168.27,135.18Zm54.55-6.88a13.58,13.58,0,1,1-5.62-18.36A13.58,13.58,0,0,1,222.82,128.3Z" style="fill:#ccc;stroke:#ccc;stroke-miterlimit:10"/><path d="M1158.83,941.41c-10.95,15.55-25.88,33-42.89,50s-34.68,32.14-50.31,43.1a70.1,70.1,0,0,0,93.2-93.1Z" style="fill:#ccc;stroke:#ccc;stroke-miterlimit:10"/><path d="M1054.66,1028.11l-1.52,1c-18.24,11.91-26.38,12.75-28,12.07-.15-.48-.66-2.89,1.87-9.31a80.31,80.31,0,0,1,4.64-9.58,80.62,80.62,0,0,1-7.31-10.67c-11.57,18.89-14,31.31-7.49,37.83a12.72,12.72,0,0,0,9.42,3.54c7.47,0,17.83-4.26,31.3-12.83,2.69-1.71,5.46-3.57,8.28-5.56A69.38,69.38,0,0,1,1054.66,1028.11Z" style="fill:#ccc;stroke:#ccc;stroke-miterlimit:10"/><path d="M1173.74,892.55c-6.52-6.52-18.93-4.08-37.82,7.48a81.25,81.25,0,0,1,10.66,7.32,83,83,0,0,1,9.53-4.63c6.47-2.55,8.89-2,9.36-1.88.68,1.64-.15,9.78-12.07,28-.33.51-.67,1-1,1.53a69.38,69.38,0,0,1,6.5,11.17q3-4.24,5.56-8.29C1177.54,912.7,1180.58,899.38,1173.74,892.55Z" style="fill:#ccc;stroke:#ccc;stroke-miterlimit:10"/><path d="M1144.84,921.46A70.07,70.07,0,1,0,1054.49,1028c16.12-10.72,34.94-26.58,53.19-44.83s33.91-36.83,44.63-52.89A70.89,70.89,0,0,0,1144.84,921.46Zm-59.28,61.23a17.52,17.52,0,1,1,17.52-17.52A17.52,17.52,0,0,1,1085.56,982.69Zm18-50.22a7.79,7.79,0,1,1,2.28-5.51A7.75,7.75,0,0,1,1103.55,932.47Z" style="fill:#ccc;stroke:#ccc;stroke-miterlimit:10"/><circle cx="1085.56" cy="965.17" r="5.84" style="fill:#ccc;stroke:#ccc;stroke-miterlimit:10"/></svg>