<svg id="Capa_1" data-name="Capa 1" xmlns="http://www.w3.org/2000/svg" viewBox="0 0 100 100"><title>socialMedia</title><rect x="15.39" y="17.12" width="69.71" height="69.71" rx="12" ry="12" transform="translate(-22.03 50.75) rotate(-45)" style="fill:#ccc;stroke:#333;stroke-miterlimit:10;stroke-width:2px"/><g id="Page-1"><g id="Dribbble-Light-Preview"><g id="icons"><path id="instagram-_167_" data-name="instagram-[#167]" d="M42.6,31.43c-3.34.15-6.23,1-8.56,3.29s-3.15,5.25-3.3,8.55c-.1,2.06-.65,17.63.94,21.72a10.38,10.38,0,0,0,6,6,15.14,15.14,0,0,0,5,.94c18.17.82,24.9.38,27.74-6.89a15.1,15.1,0,0,0,1-4.94c.83-18.22-.14-22.16-3.3-25.33-2.52-2.5-5.47-4.21-25.39-3.29m.17,36.79a11.28,11.28,0,0,1-3.79-.7,6.67,6.67,0,0,1-3.87-3.86c-1.21-3.1-.81-17.84-.7-20.23S35,39,36.64,37.31c2-2,4.67-3,22.62-2.22,2.34.11,4.48.58,6.13,2.22,2,2,3,4.7,2.23,22.57a11.2,11.2,0,0,1-.71,3.78c-1.84,4.73-6.09,5.39-24.14,4.56M59.45,40.79a2.45,2.45,0,1,0,2.45-2.44,2.45,2.45,0,0,0-2.45,2.44M40.54,51.66A10.48,10.48,0,1,0,51,41.21,10.46,10.46,0,0,0,40.54,51.66m3.67,0A6.8,6.8,0,1,1,51,58.44a6.8,6.8,0,0,1-6.8-6.78" style="fill:#333"/></g></g></g></svg>