<svg id="Capa_1" data-name="Capa 1" xmlns="http://www.w3.org/2000/svg" viewBox="0 0 600 195"><title>LOGO</title><g id="SVGRepo_iconCarrier" data-name="SVGRepo iconCarrier"><path d="M452.92,101.85c22.93,18.89,53.06,6.24,70.89-13.48a37.55,37.55,0,0,1,4.64-4.24c7.55-.35,15.75.5,22.47,4.24,0,0-12,9.11-16.63,19.1,0,0,13.51,2.75,24.13-3.93a59.93,59.93,0,0,1-12.65,29.77,117.29,117.29,0,0,1-11.48,2.87c-69.7,13.73-89.76-25.88-89.76-25.88Z" style="fill:#ff8c00"/><path d="M534.29,107.47c4.58-10,16.63-19.1,16.63-19.1-6.72-3.74-14.92-4.59-22.47-4.24C548.13,68.59,584.63,68,584.63,68s17.1,48.14-38.86,65.3a59.82,59.82,0,0,0,12.65-29.77C547.8,110.22,534.29,107.47,534.29,107.47Z" style="fill:#ccc"/><path d="M170.7,46S191.64,16.6,232,16.6c0,0,4.07,38.08-21.74,67.53" style="fill:#ff8c00"/><path d="M171.07,54.55a60.9,60.9,0,0,1,47.55-22.77s3.15,29.52-16.86,52.35" style="fill:#ffb6c1"/><path d="M79.57,46S58.63,16.6,18.23,16.6c0,0-4.06,38.08,21.75,67.53" style="fill:#ff8c00"/><path d="M79.2,54.55A60.9,60.9,0,0,0,31.65,31.78S28.5,61.3,48.51,84.13" style="fill:#ffb6c1"/><path d="M126.28,29.61s-85,0-105.75,107.3c0,0,79.39-16,105.75,25.1C147.7,125.15,232,136.91,232,136.91,211.28,29.61,126.28,29.61,126.28,29.61Z" style="fill:#ff8c00;stroke:#ff8c00;stroke-miterlimit:10"/><path d="M66.58,52.9S79,58.43,97.29,85.12c19.42,28.35,15,62.9,15,62.9s-23.57-17-91.76-11.11C20.53,136.91,25.14,83.64,66.58,52.9Z" style="fill:#ccc"/><path d="M186.42,52.9S174,58.43,155.71,85.12c-19.43,28.35-15,62.9-15,62.9s23.57-17,91.77-11.11C232.46,136.91,227.86,83.64,186.42,52.9Z" style="fill:#ccc"/><circle cx="170.69" cy="97.52" r="8.89"/><circle cx="174.43" cy="95.81" r="3.36" style="fill:#fff"/><circle cx="82.3" cy="97.52" r="8.89"/><circle cx="85.66" cy="95.81" r="3.36" style="fill:#fff"/><path d="M140.27,148a14,14,0,1,1-28,0"/></g><path d="M244.36,139.53l-2.51-.7c-.74-.21-1.47-.43-2.42-.72,0,1.92-.07,3.31-.16,4.67s-.24,2.69-.5,4.38c-1.56-.81-2.32-1.22-3.8-2.07.24-1.33.41-2.67.53-4s.18-2.69.2-4,0-2.69-.08-4-.17-2.7-.31-4.05-.32-2.71-.53-4.08-.45-2.74-.73-4.13-.58-2.8-.93-4.24-.7-2.88-1.11-4.36-.84-3-1.33-4.54-1-3.13-1.58-4.75-1.2-3.3-1.88-5-1.43-3.5-2.24-5.34-1.69-3.75-2.66-5.73-2-4-3.17-6.15c1.36-1.4,2.08-2.09,3.61-3.45,1.19,1.68,2.3,3.32,3.35,4.94s2,3.2,3,4.75,1.81,3.09,2.65,4.6,1.62,3,2.36,4.46,1.46,2.91,2.13,4.34,1.3,2.85,1.91,4.26,1.18,2.82,1.72,4.22,1.07,2.79,1.56,4.19,1,2.77,1.46,4.16.93,2.78,1.36,4.17.83,2.78,1.21,4.17.74,2.8,1.08,4.21.65,2.84.94,4.28.55,2.89.79,4.36.44,3,.62,4.48.33,3,.44,4.59.18,3.13.21,4.73c-1.77-.71-2.63-1.08-4.32-1.83,0-1.38-.08-2.55-.14-3.65s-.15-2.13-.26-3.26S244.56,141,244.36,139.53Zm-3.12-14.78c-.44-1.56-.87-3-1.31-4.35s-.86-2.64-1.3-3.88-.86-2.43-1.3-3.62-.9-2.39-1.4-3.63-1-2.51-1.63-3.86-1.25-2.8-2-4.36c.69,2,1.26,3.74,1.76,5.38s.93,3.15,1.32,4.61.74,2.89,1.07,4.31.68,2.89,1,4.43.61,3.16.89,4.92Z" style="fill:#ff8c00;stroke:#ccc"/><path d="M247.15,62q1.47,2.68,2.79,5.29c.89,1.73,1.72,3.44,2.51,5.12s1.54,3.35,2.25,5,1.39,3.25,2,4.85S258,85.39,258.54,87s1.12,3.11,1.63,4.65,1,3.06,1.47,4.58.9,3,1.31,4.54.81,3,1.18,4.51.72,3,1.05,4.51.7,3,1.05,4.44.67,3,1,4.43.59,2.93.85,4.39.51,2.91.73,4.36.42,2.9.6,4.36.34,2.91.48,4.37.26,2.93.35,4.41.16,3,.2,4.45.06,3,0,4.51-.05,3-.13,4.58-.18,3.08-.32,4.64c-1.93-.49-2.89-.75-4.77-1.28.14-1.58.23-3.12.28-4.62s.09-3,.09-4.4,0-2.83-.09-4.22-.12-2.75-.22-4.11-.21-2.72-.34-4.08-.3-2.73-.48-4.12-.39-2.81-.62-4.26-.49-2.95-.78-4.5-.62-3.15-1-4.83-.78-3.44-1.24-5.3-.89-3.75-1.4-5.77c.43,2.25.78,4.34,1.16,6.37s.69,3.93,1,5.74.5,3.53.69,5.18.36,3.24.49,4.79.24,3.05.31,4.53.13,2.94.16,4.39,0,2.91,0,4.38-.09,2.94-.18,4.45-.21,3-.37,4.61-.37,3.18-.63,4.83c-1.55-.47-2.31-.71-3.81-1.21,0-1.68-.05-3.29-.13-4.86s-.19-3.08-.32-4.56-.3-2.93-.49-4.35-.39-2.83-.61-4.22-.48-2.79-.76-4.19-.58-2.82-.91-4.26-.69-2.92-1.08-4.45-.84-3.1-1.32-4.75-1-3.37-1.62-5.18-1.19-3.69-1.87-5.67c.56,2,1,3.89,1.53,5.71s.91,3.54,1.29,5.18.72,3.21,1,4.72.56,3,.8,4.38.44,2.8.63,4.17.34,2.72.48,4.08.24,2.71.33,4.08.16,2.76.19,4.18.05,2.87,0,4.36-.09,3-.2,4.59c-1.77-.62-2.64-.95-4.34-1.61.11-1.58.16-3.14.18-4.7s0-3.08-.07-4.61-.16-3-.29-4.53-.28-3-.47-4.47-.39-3-.63-4.42-.51-2.93-.8-4.4-.6-2.93-.94-4.4-.71-3-1.1-4.44-.81-3-1.22-4.47-.85-3-1.31-4.54-1-3-1.49-4.59-1.08-3.1-1.68-4.68-1.22-3.18-1.9-4.8-1.39-3.27-2.15-5-1.58-3.4-2.44-5.14-1.8-3.54-2.79-5.36-2-3.69-3.17-5.6c.93-.66,1.64-1.16,2.37-1.64s1.46-1,2.47-1.61q1.65,2.43,3.1,4.74t2.74,4.51c.86,1.47,1.67,2.9,2.44,4.31s1.5,2.79,2.2,4.16,1.37,2.72,2,4.06,1.25,2.69,1.85,4,1.16,2.69,1.72,4,1.1,2.73,1.63,4.13,1,2.82,1.54,4.28,1,3,1.48,4.48,1,3.09,1.53,4.7,1,3.26,1.47,5,.94,3.43,1.38,5.23c-.18-1.79-.39-3.54-.63-5.26s-.5-3.4-.78-5.06-.62-3.32-.89-4.86-.56-3.16-.86-4.69-.62-3-1-4.54-.68-3-1-4.42-.76-2.92-1.17-4.38-.84-2.92-1.29-4.4-.94-3-1.45-4.48-1.06-3.06-1.64-4.64S246.62,77,246,75.32s-1.37-3.36-2.13-5.12-1.59-3.56-2.48-5.43c1.13-.58,2-1,2.86-1.43S246,62.51,247.15,62Z" style="fill:#ff8c00;stroke:#ccc"/><path d="M283.24,110c.24,2,.38,3.78.45,5.44a45.35,45.35,0,0,1,0,4.55,28.71,28.71,0,0,1-.44,3.7,9.53,9.53,0,0,1-1.35,3.65,2.47,2.47,0,0,1-2.06,1.17l-2.66,0c.26,2,.47,3.81.64,5.51s.29,3.29.39,4.79.17,2.94.22,4.33.07,2.76.08,4.12,0,2.74-.05,4.14-.11,2.84-.21,4.35-.23,3.08-.4,4.75l-2.53-.55-2.49-.57c.15-1.6.27-3.18.35-4.74s.14-3.13.16-4.67,0-3.08,0-4.61-.1-3-.19-4.54-.19-3-.33-4.5-.28-3-.46-4.47-.38-3-.6-4.46-.46-3-.72-4.45-.54-3-.85-4.49-.63-3-1-4.53-.72-3-1.05-4.54-.68-3.07-1.05-4.61-.76-3.07-1.17-4.61-.85-3.07-1.32-4.62-.95-3.11-1.46-4.68-1.06-3.15-1.64-4.74-1.18-3.21-1.82-4.83-1.32-3.28-2-4.94-1.47-3.36-2.26-5.07-1.64-3.45-2.53-5.21S251,62.52,250,60.7c1.53-.64,2.7-1.12,3.89-1.58s2.38-.92,4-1.5a3.41,3.41,0,0,1,2.36.11,10.25,10.25,0,0,1,2.92,1.84,26.52,26.52,0,0,1,3.41,3.62c.73.91,1.46,1.89,2.19,3s1.45,2.22,2.18,3.46,1.44,2.56,2.15,4,1.41,2.9,2.09,4.49,1.35,3.26,2,5c.4,1.09.81,2.28,1.22,3.57s.84,2.69,1.26,4.19c.48,1.71.92,3.4,1.3,5.06s.71,3.3,1,4.91.52,3.19.72,4.74S283.05,108.55,283.24,110ZM274,91.92c-.44-1.46-.77-2.49-1-3.11-.48-1.38-1-2.6-1.45-3.66a23.54,23.54,0,0,0-1.42-2.7c-.94-1.47-1.76-2.11-2.44-1.93-.87.23-1.31.34-2.17.58.69,1.83,1.28,3.5,1.82,5.06s1,3,1.46,4.45.86,2.83,1.28,4.28.82,2.94,1.24,4.55.84,3.36,1.28,5.31l2.16-.3c.52-.07.85-.58,1-1.54a15.35,15.35,0,0,0-.2-4.21A53.37,53.37,0,0,0,274,91.92Z" style="fill:#ff8c00;stroke:#ccc"/><path d="M296.15,142.31l3.21.14,3.24.11c0,1.82,0,3.44-.06,4.93s-.12,2.86-.2,4.18-.18,2.59-.29,3.88-.26,2.6-.43,4-.38,2.87-.64,4.49c-1.57-.16-2.87-.3-4.07-.44s-2.31-.28-3.5-.44-2.46-.33-4-.56c.21-1.59.39-3.18.53-4.75s.26-3.14.34-4.69.14-3.1.17-4.63,0-3.07,0-4.59-.07-3-.14-4.54-.15-3-.27-4.51-.24-3-.39-4.5-.33-3-.52-4.49-.41-3-.64-4.51-.49-3-.76-4.54-.57-3.06-.88-4.6-.66-3-.94-4.59-.57-3.12-.89-4.67-.65-3.1-1-4.65-.73-3.09-1.13-4.64-.83-3.11-1.27-4.67-.92-3.12-1.41-4.7-1-3.16-1.58-4.76-1.13-3.2-1.74-4.83-1.26-3.26-1.94-4.91-1.39-3.32-2.15-5-1.54-3.4-2.38-5.13-1.72-3.48-2.64-5.25l2.94-.82c.89-.24,1.79-.48,3-.78q1.33,2.56,2.53,5.05c.8,1.66,1.55,3.29,2.27,4.9s1.39,3.2,2,4.76,1.25,3.12,1.83,4.65,1.13,3,1.66,4.54,1,3,1.49,4.47.93,3,1.35,4.43.84,2.94,1.23,4.4.76,2.94,1.12,4.42.69,3,1,4.46.62,3,.91,4.54.56,3.12.82,4.59.63,3.1.93,4.67.59,3.15.85,4.74.51,3.18.74,4.79.43,3.23.62,4.86.34,3.29.48,5,.26,3.35.35,5.06S296.12,140.56,296.15,142.31Z" style="fill:#ff8c00;stroke:#ccc"/><path d="M289.45,49.54q1.33,2.63,2.55,5.22c.81,1.72,1.57,3.43,2.3,5.12s1.41,3.37,2.07,5,1.27,3.32,1.86,5,1.15,3.27,1.67,4.89,1,3.23,1.5,4.84.92,3.2,1.35,4.8.82,3.18,1.19,4.77.73,3.18,1.06,4.77.65,3.18.94,4.77.56,3.2.81,4.81.45,3.13.76,4.74.59,3.22.85,4.81.51,3.16.73,4.72.41,3.12.59,4.67.34,3.1.47,4.64.26,3.08.35,4.62.17,3.07.21,4.61.08,3.08.08,4.63,0,3.1-.07,4.65-.12,3.12-.22,4.69-.23,3.15-.4,4.73-.35,3.18-.57,4.79-.49,3.21-.78,4.83c-1.14-.07-2-.14-2.84-.2l-2.81-.23c.27-1.61.5-3.2.7-4.78s.37-3.15.51-4.72.24-3.11.32-4.66.14-3.09.17-4.62,0-3.06,0-4.59-.07-3-.13-4.56-.15-3-.25-4.54-.24-3-.39-4.54-.31-3-.5-4.56-.4-3-.62-4.59-.48-3.08-.75-4.64-.56-3.13-.87-4.71-.53-3.08-.79-4.66-.54-3.16-.84-4.73-.62-3.13-1-4.7-.7-3.12-1.09-4.69-.78-3.13-1.21-4.7-.88-3.15-1.36-4.74-1-3.17-1.52-4.77-1.09-3.22-1.68-4.84S290.64,67.63,290,66s-1.35-3.31-2.08-5-1.5-3.37-2.31-5.08-1.65-3.44-2.55-5.19c1.26-.25,2.22-.44,3.18-.61S288.15,49.76,289.45,49.54Z" style="fill:#ff8c00;stroke:#ccc"/><path d="M327.84,148.16l-3.91,0H320c-.24,1.78-.47,3.3-.71,4.71s-.48,2.68-.74,3.94-.53,2.52-.85,3.86-.67,2.76-1.11,4.37l-3-.12-3-.16c.43-1.61.82-3.23,1.18-4.83s.68-3.2,1-4.79.55-3.17.78-4.75.43-3.14.6-4.71.32-3.12.44-4.68.21-3.11.28-4.67.12-3.11.14-4.66,0-3.11,0-4.67-.07-3.13-.13-4.7-.15-3.16-.26-4.75-.23-3.19-.38-4.8-.33-3.25-.52-4.89-.28-3.19-.41-4.84-.29-3.28-.47-4.91-.36-3.26-.58-4.88-.44-3.24-.7-4.87-.53-3.24-.82-4.87-.63-3.26-1-4.9-.72-3.28-1.12-4.94-.82-3.31-1.28-5-.94-3.35-1.46-5.05-1.07-3.41-1.65-5.13S303,55,302.37,53.28,301,49.77,300.26,48c1.55-.19,2.73-.31,3.9-.43s2.36-.23,3.94-.36q1.5,2.52,2.85,5t2.59,4.93q1.23,2.45,2.35,4.86t2.13,4.8c.68,1.6,1.32,3.18,1.94,4.76s1.2,3.16,1.75,4.73,1.09,3.13,1.59,4.7,1,3.13,1.43,4.69.88,3.13,1.29,4.7.79,3.15,1.16,4.73.7,3.16,1,4.76.62,3.34.91,4.83.67,3.11,1,4.71.67,3.18,1,4.76.58,3.14.84,4.69.49,3.1.7,4.64.41,3.08.58,4.61.32,3.06.44,4.58.23,3.06.31,4.58.13,3.06.16,4.59,0,3.06,0,4.6-.08,3.08-.16,4.63-.2,3.1-.34,4.66-.32,3.12-.53,4.69-.46,3.15-.75,4.73h-6.1c.27-1.61.48-3,.65-4.4s.31-2.61.43-3.89.22-2.56.3-4S327.8,150,327.84,148.16Zm-1.64-24.69c-.26-1.8-.53-3.51-.82-5.17s-.59-3.25-.9-4.8-.62-3.06-1-4.54-.65-2.83-.92-4.29-.53-2.87-.83-4.3-.6-2.86-.93-4.31-.69-2.92-1.08-4.43-.82-3.08-1.28-4.7-1-3.3-1.54-5.06c.34,1.78.63,3.48.89,5.12s.49,3.21.69,4.73.39,3,.55,4.47.3,2.9.43,4.33.24,2.87.34,4.32.26,2.81.42,4.29.31,3,.44,4.55.25,3.14.35,4.79.17,3.36.23,5.15Z" style="fill:#ff8c00;stroke:#ccc"/><path d="M349,92.2c.26,1.73.47,3.36.65,4.92s.35,3,.48,4.47.16,2.68.37,4.06.39,2.74.56,4.09.32,2.72.47,4.12.27,2.84.38,4.35.22,3.09.29,4.77h-9.69c-1.58,0-3.26,0-5.28,0-.11-1.67-.24-3.23-.38-4.73s-.29-2.92-.46-4.3-.34-2.73-.53-4.07-.39-2.67-.61-4-.28-2.6-.44-4-.34-2.89-.56-4.42-.45-3.16-.73-4.88l4.22-.15,3.66-.09,3.41-.06Z" style="fill:#ff8c00;stroke:#ccc"/><path d="M367.66,46.7q1.23,2.36,2.32,4.69c.73,1.55,1.41,3.11,2.06,4.67s1.25,3.11,1.81,4.67,1.1,3.1,1.59,4.66,1,3.11,1.38,4.67.83,3.11,1.2,4.68.7,3.13,1,4.7.59,3.15.85,4.73.49,3.18.7,4.78.39,3.22.55,4.84.3,3.27.41,4.93.19,3.52.27,5,.29,3.2.46,4.86.3,3.31.42,4.94.19,3.23.25,4.83.08,3.17.08,4.74,0,3.12-.08,4.67-.14,3.09-.25,4.62-.26,3.06-.44,4.58-.38,3-.63,4.56-.51,3-.82,4.53-.66,3-1.05,4.53-.81,3-1.28,4.52-1,3-1.53,4.52-1.15,3-1.8,4.52l-2.71.16-2.73.14c.62-1.51,1.17-3,1.68-4.44s1-2.89,1.38-4.31.8-2.82,1.14-4.2.65-2.76.93-4.13.52-2.73.74-4.09.42-2.73.58-4.1.32-2.76.44-4.16.22-2.83.29-4.28.12-2.93.14-4.46,0-3.09,0-4.7-.1-3.3-.19-5-.23-3.55-.4-5.45-.53-4.09-.64-5.94-.22-4-.38-6.22c0,2.17,0,4.38,0,6.23s.24,4,.31,5.94.1,3.71.1,5.45,0,3.42-.1,5-.14,3.19-.25,4.71-.25,3-.41,4.46-.34,2.88-.54,4.29-.43,2.79-.68,4.17-.52,2.74-.82,4.11-.63,2.73-1,4.1-.75,2.75-1.18,4.15-.88,2.8-1.39,4.22-1,2.87-1.64,4.34-1.23,3-1.93,4.47c-1.87.08-2.81.11-4.7.17.46-1.53.86-3,1.22-4.51s.68-2.94,1-4.37.52-2.86.73-4.27.38-2.79.53-4.18.28-2.76.37-4.14.17-2.75.22-4.14.07-2.79.07-4.2,0-2.85-.08-4.31-.12-3-.22-4.49-.23-3.1-.39-4.73-.35-3.3-.58-5-.49-3.56-.8-5.46-.78-4-1-5.9-.53-4.08-.86-6.24c.21,2.17.35,4.39.5,6.25s.5,4,.7,5.9.36,3.71.49,5.46.22,3.42.29,5,.1,3.2.11,4.73,0,3,0,4.49-.1,2.89-.18,4.31-.19,2.81-.32,4.2-.28,2.77-.46,4.15-.39,2.76-.62,4.15-.49,2.78-.78,4.19-.62,2.84-1,4.28-.76,2.91-1.21,4.39-.94,3-1.48,4.54l-2.88.06c-.87,0-1.74,0-2.9.05.52-1.56,1-3.11,1.42-4.67s.82-3.1,1.18-4.64.67-3.09.95-4.63.54-3.07.75-4.61.41-3.06.56-4.6.29-3.06.39-4.6.17-3.07.21-4.61.07-3.08.06-4.63,0-3.1-.1-4.67-.13-3.13-.24-4.72-.24-3.17-.39-4.78-.34-3.24-.54-4.88-.45-3.32-.58-4.82-.27-3.32-.43-5-.36-3.26-.56-4.88-.44-3.22-.69-4.82-.53-3.19-.83-4.78-.62-3.18-1-4.76-.72-3.16-1.12-4.75-.83-3.16-1.29-4.75-.95-3.17-1.47-4.76-1.07-3.19-1.66-4.79-1.22-3.2-1.88-4.81-1.36-3.23-2.11-4.85-1.53-3.26-2.36-4.9h8.24c.93,1.55,1.81,3.07,2.64,4.58s1.61,3,2.35,4.45,1.44,2.91,2.1,4.35,1.28,2.86,1.88,4.28,1.15,2.81,1.68,4.22,1,2.79,1.52,4.19.94,2.8,1.37,4.2.85,2.82,1.24,4.24.77,2.87,1.13,4.32.69,2.94,1,4.45.62,3,.91,4.61.55,3.18.8,4.83.47,3.51.69,5.08.59,3.38.91,5.18.6,3.6.86,5.42.49,3.67.69,5.54.36,3.76.49,5.67c.13-1.92.22-3.81.27-5.68s.06-3.71,0-5.54-.07-3.65-.15-5.44-.23-3.63-.23-5.19,0-3.45,0-5.1-.08-3.28-.15-4.85-.16-3.12-.27-4.63-.23-3-.37-4.46-.31-2.9-.49-4.33-.38-2.84-.6-4.24-.46-2.81-.72-4.2-.55-2.79-.85-4.19-.64-2.79-1-4.2-.75-2.82-1.16-4.24-.87-2.86-1.35-4.3-1-2.91-1.57-4.39-1.17-3-1.82-4.48l3.89.09Z" style="fill:#ff8c00;stroke:#ccc"/><path d="M386.5,70.2c.42,1.52.77,2.91,1.08,4.23s.58,2.55.83,3.77.47,2.42.69,3.67.43,2.55.63,4,.41,3,.6,4.69H397c.19,1.84.33,3.55.44,5.18s.2,3.18.26,4.7.09,3,.13,4.32.29,2.93.42,4.44.23,3,.31,4.67.14,3.33.16,5.15l-3.23.06-3.28.07c0,1.88,0,3.55,0,5.09s-.09,2.93-.17,4.28-.17,2.65-.3,4-.27,2.64-.45,4-.41,2.9-.7,4.52l3.59-.16,3.52-.18c-.38,2-.77,3.67-1.18,5.24s-.82,3-1.25,4.37-.87,2.68-1.36,4-1,2.65-1.63,4-1.29,2.89-2.1,4.49c-1.55.18-2.86.33-4.09.45s-2.38.24-3.64.35-2.6.22-4.24.34q1-2.25,1.85-4.49t1.58-4.5q.72-2.25,1.32-4.5t1.08-4.5c.32-1.51.61-3,.86-4.52s.47-3,.66-4.54.34-3,.46-4.57.22-3.07.28-4.61.1-3.1.11-4.67,0-3.14-.07-4.74-.13-3.2-.24-4.82-.24-3.27-.4-4.94-.37-3.37-.44-4.86-.15-3.37-.25-5-.24-3.3-.4-4.93-.33-3.23-.53-4.83-.43-3.19-.69-4.78-.53-3.15-.84-4.72-.64-3.13-1-4.68-.76-3.12-1.18-4.67-.89-3.1-1.38-4.64-1-3.1-1.58-4.64-1.16-3.09-1.81-4.64-1.32-3.09-2.05-4.64-1.5-3.09-2.32-4.64c1.9.09,3.47.19,4.92.28s2.79.19,4.21.31,2.93.25,4.71.43c.91,1.63,1.68,3.13,2.38,4.56s1.31,2.78,1.89,4.12,1.12,2.68,1.65,4.07,1.05,2.84,1.58,4.44,1.05,3.34,1.6,5.32l-3.8-.11Z" style="fill:#ff8c00;stroke:#ccc"/><path d="M408.29,159.6c-1.77.44-2.67.64-4.51,1q1-2.13,1.83-4.23c.54-1.4,1-2.79,1.45-4.17s.79-2.75,1.12-4.12.61-2.74.85-4.11.44-2.75.6-4.14.3-2.79.39-4.22.16-2.87.19-4.35,0-3,0-4.57-.12-3.18-.24-4.85-.28-3.43-.49-5.25-.47-3.74-.79-5.75-.87-4.39-1.11-6.32-.49-4.36-.82-6.68c.1,2.15.14,4.46.18,6.27s.34,4,.48,5.87.22,3.71.28,5.45.06,3.4,0,5-.07,3.15-.15,4.65-.2,3-.33,4.39-.31,2.81-.5,4.18-.42,2.72-.67,4.05-.52,2.65-.83,4-.66,2.63-1,3.94-.79,2.62-1.25,3.94-.95,2.64-1.49,4-1.14,2.69-1.79,4.06-1.36,2.75-2.13,4.15c-1.94.31-2.92.46-4.91.73.78-1.5,1.5-3,2.16-4.49s1.28-3,1.85-4.51,1.07-3,1.54-4.54.89-3,1.27-4.55.72-3.06,1-4.59.56-3.08.78-4.63.41-3.11.56-4.68.27-3.14.35-4.74.13-3.2.14-4.82,0-3.26-.06-4.91-.13-3.34-.25-5-.26-3.42-.45-5.17-.14-3.31-.2-5-.15-3.44-.26-5.13-.25-3.36-.42-5-.36-3.29-.59-4.92-.48-3.24-.76-4.84-.6-3.2-.94-4.78-.73-3.16-1.15-4.73-.86-3.14-1.35-4.7-1-3.11-1.59-4.66-1.18-3.09-1.84-4.63-1.36-3.07-2.11-4.61-1.55-3.06-2.41-4.58c1.14.13,2,.24,2.82.35s1.68.23,2.78.4q1.56,2.2,2.93,4.35c.91,1.43,1.75,2.84,2.55,4.24s1.54,2.78,2.24,4.15,1.35,2.73,2,4.09,1.2,2.72,1.75,4.08,1.06,2.73,1.55,4.1,1,2.77,1.39,4.19.86,2.85,1.25,4.31.76,3,1.11,4.53.67,3.14,1,4.79.58,3.37.83,5.16.48,3.66.68,5.61.54,3.78.89,5.83.65,4.12.91,6.22q-.1-3.15-.35-6.23c-.17-2-.34-3.86-.36-5.81s-.08-3.81-.16-5.59-.2-3.49-.35-5.13-.3-3.23-.49-4.76-.41-3-.65-4.47-.49-2.86-.78-4.25-.59-2.75-.92-4.1-.69-2.69-1.08-4-.81-2.65-1.26-4-.94-2.64-1.47-4-1.09-2.65-1.71-4-1.27-2.68-2-4-1.49-2.72-2.33-4.1l2.57.56,2.52.61c.91,1.43,1.75,2.87,2.54,4.33s1.52,2.91,2.2,4.39,1.31,3,1.89,4.46,1.11,3,1.6,4.52.94,3.05,1.34,4.6.78,3.1,1.11,4.67.62,3.16.88,4.76.49,3.22.68,4.85.35,3.3.48,5,.22,3.38.28,5.11.1,3.48.11,5.27.2,3.35.33,5.1.24,3.47.3,5.16.08,3.37.07,5-.08,3.27-.17,4.88-.23,3.2-.41,4.77-.39,3.13-.64,4.68-.57,3.07-.91,4.59-.74,3-1.19,4.53-.93,3-1.48,4.47-1.14,3-1.79,4.42-1.38,2.92-2.15,4.37S409.2,158.17,408.29,159.6Z" style="fill:#ff8c00;stroke:#ccc"/><path d="M420.69,56.77c.95,1.22,1.75,2.37,2.48,3.47s1.35,2.17,1.95,3.23,1.14,2.13,1.67,3.25,1.06,2.31,1.58,3.62,1.05,2.77,1.58,4.44c-1.6-.41-2.42-.6-4.11-1q.78,2.55,1.36,5.11c.39,1.72.73,3.43,1,5.15s.53,3.45.72,5.19.34,3.48.45,5.23.18,3.51.22,5.28,0,3.63,0,5.13.32,3.49.43,5.18.16,3.32.19,4.91,0,3.15-.06,4.68-.15,3-.28,4.48-.3,2.91-.51,4.33-.46,2.82-.75,4.21-.62,2.76-1,4.12-.8,2.71-1.27,4.05-1,2.67-1.56,4-1.2,2.65-1.89,4-1.44,2.63-2.26,3.94-1.71,2.6-2.68,3.9c-1.58.58-2.39.86-4.06,1.37.94-1.35,1.8-2.71,2.6-4.07s1.53-2.73,2.2-4.09,1.27-2.74,1.83-4.11,1.06-2.75,1.52-4.14.86-2.78,1.22-4.18.68-2.81,1-4.24.52-2.86.72-4.32.36-2.94.49-4.44.21-3,.26-4.58.06-3.15,0-4.78-.09-3.29-.2-5-.43-3.74-.43-5.27,0-3.42,0-5.23-.11-3.6-.23-5.39-.27-3.57-.47-5.34-.44-3.55-.73-5.32-.63-3.53-1-5.3-.85-3.52-1.36-5.27c-1.78-.3-2.69-.44-4.55-.69-.53-1.84-1-3.45-1.57-4.92s-1-2.8-1.57-4.07-1.07-2.47-1.65-3.68-1.21-2.43-1.92-3.7-1.49-2.61-2.42-4c1.9.53,3.42,1,4.82,1.48s2.66.95,4,1.49S419.1,56,420.69,56.77Z" style="fill:#ff8c00;stroke:#ccc"/><path d="M435.41,76.31c.5,1.47.89,2.81,1.23,4.08s.62,2.48.87,3.72.48,2.51.69,3.92.41,3,.58,4.82c1.74.29,2.58.44,4.18.78.16,1.8.26,3.48.31,5.09s.06,3.15,0,4.69a39.08,39.08,0,0,0,.17,4.33c.15,1.54.25,3.07.31,4.68s.08,3.3,0,5.11l-4.14.18c-.06,2-.18,3.74-.34,5.29s-.36,2.94-.6,4.3-.51,2.68-.85,4.08-.77,2.86-1.32,4.47c1.9-.46,2.81-.7,4.54-1.22a43.06,43.06,0,0,1-2.12,4.72c-.72,1.37-1.44,2.58-2.21,3.75s-1.61,2.29-2.56,3.46a45.11,45.11,0,0,1-3.39,3.69c-1.43,1-2.57,1.65-3.74,2.3s-2.37,1.28-4.06,2q1.65-2,3-4c.93-1.37,1.77-2.76,2.55-4.16s1.47-2.82,2.1-4.26,1.2-2.89,1.71-4.37.94-3,1.32-4.47.71-3,1-4.6.49-3.13.65-4.73.29-3.22.35-4.88.08-3.34,0-5.06-.12-3.47-.26-5.26-.33-3.38-.31-5.22,0-3.62,0-5.38S435,94.7,434.87,93s-.31-3.34-.53-5-.48-3.22-.79-4.8-.66-3.11-1.06-4.63-.85-3-1.35-4.5-1.06-2.93-1.67-4.35-1.29-2.84-2-4.22-1.54-2.74-2.41-4.08-1.81-2.64-2.83-3.92c1.23.66,2.22,1.24,3.12,1.81s1.72,1.11,2.57,1.72,1.75,1.29,2.77,2.16a37.58,37.58,0,0,1,3.06,3.43,40,40,0,0,1,2.34,3.3,39,39,0,0,1,2,3.61,44,44,0,0,1,2,4.62c-.9-.41-1.59-.7-2.3-1S436.4,76.66,435.41,76.31Z" style="fill:#ff8c00;stroke:#ccc"/><path d="M146.78,166.29a22.3,22.3,0,0,1-9.07,8.23,26.67,26.67,0,0,1-24.46-.24,22.32,22.32,0,0,1-8.89-8.41,49,49,0,0,0,10.43,4.79,36.78,36.78,0,0,0,21.46.22A48.18,48.18,0,0,0,146.78,166.29Z"/></svg>