<svg id="Capa_1" data-name="Capa 1" xmlns="http://www.w3.org/2000/svg" viewBox="0 0 330 230"><title>LOGO</title><path d="M220.31,52.64S245.73,17,294.75,17c0,0,4.93,46.23-26.39,82" style="fill:#ff8c00"/><path d="M220.76,63.06s19.71-27.63,57.71-27.63c0,0,3.82,35.83-20.46,63.53" style="fill:#ffb6c1"/><path d="M109.73,52.64S84.31,17,35.28,17c0,0-4.93,46.23,26.4,82" style="fill:#ff8c00"/><path d="M109.27,63.06s-19.7-27.63-57.7-27.63c0,0-3.83,35.83,20.46,63.53" style="fill:#ffb6c1"/><path d="M166.41,32.79S63.26,32.79,38.07,163c0,0,96.35-19.47,128.34,30.46C192.4,148.74,294.75,163,294.75,163,269.56,32.79,166.41,32.79,166.41,32.79Z" style="fill:#ff8c00;stroke:#ff8c00;stroke-miterlimit:10"/><path d="M94,61.06s15.07,6.71,37.26,39.1c23.58,34.41,18.21,76.34,18.21,76.34S120.83,155.85,38.07,163C38.07,163,43.66,98.36,94,61.06Z" style="fill:#ccc"/><path d="M239.39,61.06s-15.08,6.71-37.27,39.1c-23.57,34.41-18.21,76.34-18.21,76.34s28.6-20.65,111.37-13.49C295.27,163,289.68,98.36,239.39,61.06Z" style="fill:#ccc"/><circle cx="220.31" cy="115.21" r="10.79"/><circle cx="224.84" cy="113.13" r="4.08" style="fill:#fff"/><circle cx="113.03" cy="115.21" r="10.79"/><circle cx="117.11" cy="113.13" r="4.08" style="fill:#fff"/><path d="M183.39,176.5a17,17,0,0,1-33.95,0"/><path d="M191.29,197.46a28.28,28.28,0,0,1-11.16,9.59,32.89,32.89,0,0,1-29.37-.28,28.24,28.24,0,0,1-11-9.83,53.75,53.75,0,0,0,12.5,6.21,42.7,42.7,0,0,0,26.36.27A53.68,53.68,0,0,0,191.29,197.46Z"/></svg>