<svg id="Capa_1" data-name="Capa 1" xmlns="http://www.w3.org/2000/svg" viewBox="0 0 1920 1080"><title>FONDOS</title><g style="opacity:0.35"><rect x="1201.83" y="880.29" width="150.84" height="19.89" transform="translate(-185.62 357.41) rotate(-14.86)" style="fill:#ccc;stroke:#ccc;stroke-miterlimit:10"/><path d="M1257.86,794.54l-5.1-19.22-11.54,3.06,5.1,19.22-51.91,13.78,19.39,73.06,115.35-30.62-19.38-73.05ZM1303,848.41l-26.91,7.14L1273.05,844l26.91-7.14Z" style="fill:#ccc;stroke:#ccc;stroke-miterlimit:10"/><polygon points="1237.09 923.19 1230.34 950.8 1241.92 953.64 1250.22 919.7 1237.09 923.19" style="fill:#ccc;stroke:#ccc;stroke-miterlimit:10"/><polygon points="1328.42 898.95 1315.3 902.43 1339.33 927.78 1347.98 919.58 1328.42 898.95" style="fill:#ccc;stroke:#ccc;stroke-miterlimit:10"/><rect x="1278.69" y="910.84" width="11.93" height="15.91" transform="translate(-192.7 360.27) rotate(-14.86)" style="fill:#ccc;stroke:#ccc;stroke-miterlimit:10"/></g><g style="opacity:0.35"><path d="M1837.25,322.39c5.31-5.32,14.21-5,19.88.64l-95.66-95.66c-5.09-5.09-13.71-6-19-1.75-6.39,5.14-6.44,14.81-.41,20.84l95.81,95.81C1832.22,336.6,1831.93,327.7,1837.25,322.39Z" style="fill:#ccc;stroke:#ccc;stroke-miterlimit:10"/><rect x="1863.3" y="170.53" width="22.62" height="58.07" transform="translate(407.94 1384) rotate(-45)" style="fill:#ccc;stroke:#ccc;stroke-miterlimit:10"/><path d="M1850.43,117.62l-92.19,92.19a30.32,30.32,0,0,1,12.82,7.66l95.62,95.62,99.2-99.21-95.62-95.62C1864.61,112.61,1855.73,112.32,1850.43,117.62ZM1887.53,248l-61.33-61.33,35.23-35.24,61.33,61.33Z" style="fill:#ccc;stroke:#ccc;stroke-miterlimit:10"/></g><g style="opacity:0.35"><path d="M1459.41,408.94A56.72,56.72,0,0,1,1500,478.05L1491.1,512l-23.88-6.23,12.91-7.57,5-19.29-36.41,21.35a55.78,55.78,0,0,1-13.58-8.37l52.47-30.78a42,42,0,0,0-3.45-14.31l-58.83,34.5a57,57,0,0,1-6.7-12.42l57.81-33.9a42,42,0,0,0-12.22-9.18l-49.08,28.79a56,56,0,0,1,1.5-20.26l-13.82-3.6a70.57,70.57,0,0,0,50.45,86l31.84,8.3-8.06,30.92a69.17,69.17,0,0,0,49.44,84.26l3.5-13.42a55.07,55.07,0,0,1-39.35-67.1l8.67-33.24,24.11,6.28-13.2,7.75-5,19.3,36.47-21.41a54.35,54.35,0,0,1,13.21,8.6l-51.72,30.35a40.89,40.89,0,0,0,3.93,14l57.24-33.59a55.64,55.64,0,0,1,6.28,12.67l-55.24,32.41a40.47,40.47,0,0,0,13.2,8.6l45-26.37a54.78,54.78,0,0,1-1.68,17.11l13.5,3.52A69.16,69.16,0,0,0,1536,521.39l-30.92-8,8.3-31.84a70.57,70.57,0,0,0-50.41-86Z" style="fill:#ccc;stroke:#ccc;stroke-miterlimit:10"/></g><g style="opacity:0.35"><path d="M1874.83,889.41c-10.95,15.55-25.88,33-42.89,50s-34.68,32.14-50.31,43.1a70.1,70.1,0,0,0,93.2-93.1Z" style="fill:#ccc;stroke:#ccc;stroke-miterlimit:10"/><path d="M1770.66,976.11l-1.52,1c-18.24,11.91-26.38,12.75-28,12.07-.15-.48-.66-2.89,1.87-9.31a80.31,80.31,0,0,1,4.64-9.58,80.62,80.62,0,0,1-7.31-10.67c-11.57,18.89-14,31.31-7.49,37.83a12.72,12.72,0,0,0,9.42,3.54c7.47,0,17.83-4.26,31.3-12.83,2.69-1.71,5.46-3.57,8.28-5.56A69.38,69.38,0,0,1,1770.66,976.11Z" style="fill:#ccc;stroke:#ccc;stroke-miterlimit:10"/><path d="M1889.74,840.55c-6.52-6.52-18.93-4.08-37.82,7.48a81.25,81.25,0,0,1,10.66,7.32,83,83,0,0,1,9.53-4.63c6.47-2.55,8.89-2,9.36-1.88.68,1.64-.15,9.78-12.07,28-.33.51-.67,1-1,1.53a69.38,69.38,0,0,1,6.5,11.17q3-4.24,5.56-8.29C1893.54,860.7,1896.58,847.38,1889.74,840.55Z" style="fill:#ccc;stroke:#ccc;stroke-miterlimit:10"/><path d="M1860.84,869.46A70.07,70.07,0,1,0,1770.49,976c16.12-10.72,34.94-26.58,53.19-44.83s33.91-36.83,44.63-52.89A70.89,70.89,0,0,0,1860.84,869.46Zm-59.28,61.23a17.52,17.52,0,1,1,17.52-17.52A17.52,17.52,0,0,1,1801.56,930.69Zm18-50.22a7.79,7.79,0,1,1,2.28-5.51A7.75,7.75,0,0,1,1819.55,880.47Z" style="fill:#ccc;stroke:#ccc;stroke-miterlimit:10"/><circle cx="1801.56" cy="913.17" r="5.84" style="fill:#ccc;stroke:#ccc;stroke-miterlimit:10"/></g><g style="opacity:0.35"><path d="M789.9,476.32a53.36,53.36,0,0,1-25.07,6.24h-28.5a53.44,53.44,0,0,1-53.44-53.44V400.63a52.89,52.89,0,0,1,9-29.62,142.57,142.57,0,0,0-41-6q-6.47,0-12.77.58a32.07,32.07,0,0,1,16.33,27.92V422a32.06,32.06,0,0,1-32.06,32.06A25,25,0,0,0,597.39,479v7.13a10.74,10.74,0,0,0,10.78,10.68,32.09,32.09,0,0,1,32,32.06v49.48c0,17.32-13.57,31.81-30.87,32.44a32.1,32.1,0,0,1-33.25-32v-7.12a10.67,10.67,0,0,0-10.65-10.69,67.55,67.55,0,0,1-54.74-27.84,142.53,142.53,0,0,0,223,90.41A32.13,32.13,0,0,1,711.39,593V578.75a10.71,10.71,0,0,0-10.64-10.69,32.09,32.09,0,0,1-32.08-33.49c.75-17.2,15.2-30.63,32.42-30.63H772A32,32,0,0,1,793.25,512c0-1.5.08-3,.08-4.52A143,143,0,0,0,789.9,476.32Z" style="fill:#ccc;stroke:#ccc;stroke-miterlimit:10"/><path d="M712.48,379l-1.61,2.14a31.75,31.75,0,0,0-6.6,19.5v28.5a32.06,32.06,0,0,0,32.06,32.06h28.5a32,32,0,0,0,16.68-4.67l.44-.26,1.56-.85A143,143,0,0,0,712.48,379Z" style="fill:#ccc;stroke:#ccc;stroke-miterlimit:10"/><path d="M781.51,531.19a10.69,10.69,0,0,0-9.55-5.88h-71a10.83,10.83,0,0,0-10.87,9.87,10.7,10.7,0,0,0,10.66,11.51,32.09,32.09,0,0,1,32.06,32.06V593a10.69,10.69,0,0,0,10.69,10.69H756a142.35,142.35,0,0,0,30.47-52.3Z" style="fill:#ccc;stroke:#ccc;stroke-miterlimit:10"/><path d="M622.33,382.81H581.79A143.05,143.05,0,0,0,519,453.11l.19,45.09a46.11,46.11,0,0,0,46,41.36,32,32,0,0,1,32.16,31.87v7.1a10.84,10.84,0,0,0,9.87,10.88,10.7,10.7,0,0,0,11.51-10.66V528.87A10.74,10.74,0,0,0,608,518.19a32.1,32.1,0,0,1-32-32.07V479a46.36,46.36,0,0,1,46.28-46.31A10.73,10.73,0,0,0,633,422V393.5A10.7,10.7,0,0,0,622.33,382.81Z" style="fill:#ccc;stroke:#ccc;stroke-miterlimit:10"/></g><g style="opacity:0.35"><path d="M275.14,644.17a26.79,26.79,0,0,0-14.94-34.82L198,584.52a26.79,26.79,0,0,0-34.82,14.94h0l112,44.71Z" style="fill:#ccc;stroke:#ccc;stroke-miterlimit:10"/><circle cx="238.08" cy="521.9" r="10.07" style="fill:#ccc;stroke:#ccc;stroke-miterlimit:10"/><path d="M282.15,539.49l3.09-1.32-22.51-52.42-6.16,2.65-3.87-9-12.33,5.29,3.87,9-6.17,2.64,2.39,5.56a20.49,20.49,0,0,1,5.09,1.3A20.14,20.14,0,0,1,254.21,534l6.36,14.81,3.08-1.33,3.87,9,18.5-7.94Z" style="fill:#ccc;stroke:#ccc;stroke-miterlimit:10"/><path d="M263.21,580.53a26.84,26.84,0,0,1-32.68-39.91,20,20,0,0,1-11-10.73,20.34,20.34,0,0,1-1.52-5.82,47,47,0,0,0-6.09,55.3L265.83,601a46.42,46.42,0,0,0,5.32-1.92Z" style="fill:#ccc;stroke:#ccc;stroke-miterlimit:10"/></g><g style="opacity:0.35"><path d="M282.63,89.07a12.87,12.87,0,0,0-3.07,18l62.06,87.68a12.9,12.9,0,0,1,3.08-18L385,148.17,323,60.5Z" style="fill:#ccc;stroke:#ccc;stroke-miterlimit:10"/><path d="M251.19,111.32l-40.35,28.56,62.06,87.67L313.24,199a12.9,12.9,0,0,1,18,3.07l-62.06-87.68A12.89,12.89,0,0,0,251.19,111.32Z" style="fill:#ccc;stroke:#ccc;stroke-miterlimit:10"/><path d="M340.89,63.74,403,151.41l-40.63,28.75a13,13,0,0,0-3.09,18.1l61.82-43.76L351.49,56.23Z" style="fill:#ccc;stroke:#ccc;stroke-miterlimit:10"/><path d="M310.62,216.76,270,245.51l-62.06-87.67-10.6,7.5,69.56,98.27,61.82-43.76A13,13,0,0,0,310.62,216.76Z" style="fill:#ccc;stroke:#ccc;stroke-miterlimit:10"/></g><g style="opacity:0.35"><path d="M282.63,89.07a12.87,12.87,0,0,0-3.07,18l62.06,87.68a12.9,12.9,0,0,1,3.08-18L385,148.17,323,60.5Z" style="fill:#ccc;stroke:#ccc;stroke-miterlimit:10"/><path d="M251.19,111.32l-40.35,28.56,62.06,87.67L313.24,199a12.9,12.9,0,0,1,18,3.07l-62.06-87.68A12.89,12.89,0,0,0,251.19,111.32Z" style="fill:#ccc;stroke:#ccc;stroke-miterlimit:10"/><path d="M340.89,63.74,403,151.41l-40.63,28.75a13,13,0,0,0-3.09,18.1l61.82-43.76L351.49,56.23Z" style="fill:#ccc;stroke:#ccc;stroke-miterlimit:10"/><path d="M310.62,216.76,270,245.51l-62.06-87.67-10.6,7.5,69.56,98.27,61.82-43.76A13,13,0,0,0,310.62,216.76Z" style="fill:#ccc;stroke:#ccc;stroke-miterlimit:10"/></g><g style="opacity:0.35"><rect x="799.25" y="827.69" width="61.71" height="82.28" transform="translate(-178.11 215.04) rotate(-13.34)" style="fill:#ccc;stroke:#ccc;stroke-miterlimit:10"/><rect x="899.83" y="843.2" width="24.68" height="12.34" transform="translate(-171.4 233.45) rotate(-13.34)" style="fill:#ccc;stroke:#ccc;stroke-miterlimit:10"/><path d="M930.83,874.54l-2.38-10-36,8.54-8.54-36,36-8.54-2.38-10a12.34,12.34,0,0,0-14.86-9.16l-40,9.49,19,80.07,40-9.5A12.34,12.34,0,0,0,930.83,874.54Z" style="fill:#ccc;stroke:#ccc;stroke-miterlimit:10"/><path d="M778.62,838.71l-16,3.8a28.79,28.79,0,0,1-21.38,34.66l-24,5.7,29.72,18.32a28.8,28.8,0,0,1,34.67,21.38l16-3.8Z" style="fill:#ccc;stroke:#ccc;stroke-miterlimit:10"/></g><g style="opacity:0.35"><path d="M1045.23,61.83c-122.4,113.18-56.58,282.91,77.92,305a19.85,19.85,0,0,0,21.91-14.25l24.29-92.89a19.42,19.42,0,0,1,23.7-13.87l92.89,24.29A19.84,19.84,0,0,0,1309.09,258c46.6-128.09-69.17-268.58-227.78-217.27C1070.11,44.34,1053.87,53.84,1045.23,61.83Zm2,79.08a25.41,25.41,0,1,1,9.51,34.66A25.41,25.41,0,0,1,1047.19,140.91Zm35.47,127.68a25.41,25.41,0,1,1,9.1-34.77A25.4,25.4,0,0,1,1082.66,268.59Zm67.17-136.76a25.41,25.41,0,1,1,25.26-25.56A25.42,25.42,0,0,1,1149.83,131.83Zm93.65,42.62a25.41,25.41,0,1,1,9.1-34.77A25.4,25.4,0,0,1,1243.48,174.45Z" style="fill:#ccc;stroke:#ccc;stroke-miterlimit:10"/></g><g style="opacity:0.35"><path d="M219.67,973l8.44.8-47.39-80L88.2,884.48l47.4,80,71.5,7.21-13.51,21.17a7.45,7.45,0,0,0-4.28,3.17,7.55,7.55,0,1,0,12.72,8.12,8,8,0,0,0,1.18-5.15l16.55-25.93Z" style="fill:#ccc;stroke:#ccc;stroke-miterlimit:10"/><path d="M128.72,975.12,98.56,924.23,68.93,970.64c-7.85,12.29,5.72,35,30.3,50.67s50.87,18.45,58.72,6.16l29.63-46.42Z" style="fill:#ccc;stroke:#ccc;stroke-miterlimit:10"/></g><g style="opacity:0.35"><path d="M1159.76,495.84a12.87,12.87,0,0,0-16.56,7.58l-37.49,100.67a12.9,12.9,0,0,1,16.58-7.58l46.32,17.25,37.48-100.66Z" style="fill:#ccc;stroke:#ccc;stroke-miterlimit:10"/><path d="M1123.66,482.4l-46.32-17.24-37.48,100.66,46.32,17.24a12.89,12.89,0,0,1,7.58,16.58L1131.24,499A12.89,12.89,0,0,0,1123.66,482.4Z" style="fill:#ccc;stroke:#ccc;stroke-miterlimit:10"/><path d="M1213.51,529.71,1176,630.37,1129.39,613a13,13,0,0,0-16.7,7.63l71,26.43,42-112.83Z" style="fill:#ccc;stroke:#ccc;stroke-miterlimit:10"/><path d="M1070,590.9l-46.64-17.36,37.48-100.67-12.17-4.53-42,112.83,71,26.43A13,13,0,0,0,1070,590.9Z" style="fill:#ccc;stroke:#ccc;stroke-miterlimit:10"/></g></svg>