<svg id="Capa_1" data-name="Capa 1" xmlns="http://www.w3.org/2000/svg" viewBox="0 0 1925.7 159"><title>footernav</title><g style="opacity:0.32"><path d="M76.65,114.76a5.32,5.32,0,0,1,7.51.24L48,78.86a5.57,5.57,0,0,0-7.17-.66,5.27,5.27,0,0,0-.16,7.87l36.2,36.2A5.32,5.32,0,0,1,76.65,114.76Z" style="fill:#ccc;stroke:#ccc;stroke-miterlimit:10"/><rect x="86.49" y="57.38" width="8.55" height="21.94" transform="translate(-21.75 84.2) rotate(-45)" style="fill:#ccc;stroke:#ccc;stroke-miterlimit:10"/><path d="M81.63,37.39,46.79,72.22a11.45,11.45,0,0,1,4.85,2.9l36.13,36.13,37.48-37.49L89.12,37.63A5.31,5.31,0,0,0,81.63,37.39Zm14,49.25L72.47,63.47,85.79,50.16,109,73.33Z" style="fill:#ccc;stroke:#ccc;stroke-miterlimit:10"/></g><g style="opacity:0.32"><rect x="246.68" y="60.69" width="29.67" height="39.56" transform="translate(-11.51 62.53) rotate(-13.34)" style="fill:#ccc;stroke:#ccc;stroke-miterlimit:10"/><rect x="295.04" y="68.15" width="11.87" height="5.93" transform="translate(-8.29 71.38) rotate(-13.34)" style="fill:#ccc;stroke:#ccc;stroke-miterlimit:10"/><path d="M309.94,83.21,308.8,78.4l-17.32,4.11-4.11-17.32,17.32-4.11-1.14-4.81a5.93,5.93,0,0,0-7.14-4.4l-19.25,4.56,9.13,38.49,19.25-4.56A5.94,5.94,0,0,0,309.94,83.21Z" style="fill:#ccc;stroke:#ccc;stroke-miterlimit:10"/><path d="M236.77,66l-7.7,1.82a13.86,13.86,0,0,1-10.28,16.67l-11.55,2.74L221.53,96A13.84,13.84,0,0,1,238.2,106.3l7.7-1.82Z" style="fill:#ccc;stroke:#ccc;stroke-miterlimit:10"/></g><g style="opacity:0.32"><path d="M452.23,35.92l1.87-4.4L403,43.32,382.18,91.43l51.09-11.79,16.1-37.19,9.06,10.88a4.25,4.25,0,1,0,7.51-2.61,4.51,4.51,0,0,0-2.57-1.51l-11.1-13.32Z" style="fill:#ccc;stroke:#ccc;stroke-miterlimit:10"/><path d="M437.81,85.16l-32.5,7.5,19.87,23.86c5.27,6.32,19.78,2.9,32.41-7.62s18.61-24.18,13.35-30.5L451.06,54.54Z" style="fill:#ccc;stroke:#ccc;stroke-miterlimit:10"/></g><g style="opacity:0.32"><rect x="589.6" y="56.18" width="9.03" height="68.44" transform="translate(301.57 615.34) rotate(-69.52)" style="fill:#ccc;stroke:#ccc;stroke-miterlimit:10"/><path d="M612.06,49.89l3.15-8.45-5.07-1.9L607,48l-22.83-8.53-12,32.13,50.73,19,12-32.13Zm2.57,31.8L602.8,77.26l1.89-5.07,11.84,4.42Z" style="fill:#ccc;stroke:#ccc;stroke-miterlimit:10"/><polygon points="570.61 92.06 560.86 100.51 564.4 104.59 576.38 94.21 570.61 92.06" style="fill:#ccc;stroke:#ccc;stroke-miterlimit:10"/><polygon points="610.77 107.06 605 104.9 607.24 120.59 612.6 119.83 610.77 107.06" style="fill:#ccc;stroke:#ccc;stroke-miterlimit:10"/><rect x="585.75" y="100.21" width="7.22" height="5.42" transform="translate(286.76 619.03) rotate(-69.52)" style="fill:#ccc;stroke:#ccc;stroke-miterlimit:10"/></g><g style="opacity:0.32"><path d="M747.65,111.76a5.32,5.32,0,0,1,7.51.24L719,75.86a5.57,5.57,0,0,0-7.17-.66,5.27,5.27,0,0,0-.16,7.87l36.2,36.2A5.32,5.32,0,0,1,747.65,111.76Z" style="fill:#ccc;stroke:#ccc;stroke-miterlimit:10"/><rect x="757.49" y="54.38" width="8.55" height="21.94" transform="translate(176.9 557.79) rotate(-45)" style="fill:#ccc;stroke:#ccc;stroke-miterlimit:10"/><path d="M752.63,34.39,717.79,69.22a11.45,11.45,0,0,1,4.85,2.9l36.13,36.13,37.48-37.49L760.12,34.63A5.31,5.31,0,0,0,752.63,34.39Zm14,49.25L743.47,60.47l13.32-13.31L780,70.33Z" style="fill:#ccc;stroke:#ccc;stroke-miterlimit:10"/></g><g style="opacity:0.32"><rect x="917.68" y="57.69" width="29.67" height="39.56" transform="translate(7.3 217.31) rotate(-13.34)" style="fill:#ccc;stroke:#ccc;stroke-miterlimit:10"/><rect x="966.04" y="65.15" width="11.87" height="5.93" transform="translate(10.52 226.16) rotate(-13.34)" style="fill:#ccc;stroke:#ccc;stroke-miterlimit:10"/><path d="M980.94,80.21,979.8,75.4l-17.32,4.11-4.11-17.32,17.32-4.11-1.14-4.81a5.93,5.93,0,0,0-7.14-4.4l-19.25,4.56,9.13,38.49,19.25-4.56A5.94,5.94,0,0,0,980.94,80.21Z" style="fill:#ccc;stroke:#ccc;stroke-miterlimit:10"/><path d="M907.77,63l-7.7,1.82a13.86,13.86,0,0,1-10.28,16.67l-11.55,2.74L892.53,93A13.84,13.84,0,0,1,909.2,103.3l7.7-1.82Z" style="fill:#ccc;stroke:#ccc;stroke-miterlimit:10"/></g><g style="opacity:0.32"><path d="M1123.23,32.92l1.87-4.4L1074,40.32l-20.83,48.11,51.09-11.79,16.1-37.19,9.06,10.88a4.25,4.25,0,1,0,7.51-2.61,4.51,4.51,0,0,0-2.57-1.51l-11.1-13.32Z" style="fill:#ccc;stroke:#ccc;stroke-miterlimit:10"/><path d="M1108.81,82.16l-32.5,7.5,19.87,23.86c5.27,6.32,19.78,2.9,32.41-7.62s18.61-24.18,13.35-30.5l-19.88-23.86Z" style="fill:#ccc;stroke:#ccc;stroke-miterlimit:10"/></g><g style="opacity:0.32"><rect x="1290.6" y="56.18" width="9.03" height="68.44" transform="translate(757.32 1272.04) rotate(-69.52)" style="fill:#ccc;stroke:#ccc;stroke-miterlimit:10"/><path d="M1313.06,49.89l3.15-8.45-5.07-1.9L1308,48l-22.83-8.53-12,32.13,50.73,19,12-32.13Zm2.57,31.8-11.83-4.43,1.89-5.07,11.84,4.42Z" style="fill:#ccc;stroke:#ccc;stroke-miterlimit:10"/><polygon points="1271.61 92.06 1261.86 100.51 1265.4 104.59 1277.38 94.21 1271.61 92.06" style="fill:#ccc;stroke:#ccc;stroke-miterlimit:10"/><polygon points="1311.77 107.06 1306 104.9 1308.24 120.59 1313.6 119.83 1311.77 107.06" style="fill:#ccc;stroke:#ccc;stroke-miterlimit:10"/><rect x="1286.75" y="100.21" width="7.22" height="5.42" transform="translate(742.51 1275.73) rotate(-69.52)" style="fill:#ccc;stroke:#ccc;stroke-miterlimit:10"/></g><g style="opacity:0.32"><path d="M1404.65,112.76a5.32,5.32,0,0,1,7.51.24L1376,76.86a5.57,5.57,0,0,0-7.17-.66,5.27,5.27,0,0,0-.16,7.87l36.2,36.2A5.32,5.32,0,0,1,1404.65,112.76Z" style="fill:#ccc;stroke:#ccc;stroke-miterlimit:10"/><rect x="1414.49" y="55.38" width="8.55" height="21.94" transform="translate(368.63 1022.65) rotate(-45)" style="fill:#ccc;stroke:#ccc;stroke-miterlimit:10"/><path d="M1409.63,35.39l-34.84,34.83a11.45,11.45,0,0,1,4.85,2.9l36.13,36.13,37.48-37.49-36.13-36.13A5.31,5.31,0,0,0,1409.63,35.39Zm14,49.25-23.18-23.17,13.32-13.31L1437,71.33Z" style="fill:#ccc;stroke:#ccc;stroke-miterlimit:10"/></g><g style="opacity:0.32"><rect x="1595.68" y="56.69" width="29.67" height="39.56" transform="translate(25.83 373.76) rotate(-13.34)" style="fill:#ccc;stroke:#ccc;stroke-miterlimit:10"/><rect x="1644.04" y="64.15" width="11.87" height="5.93" transform="translate(29.06 382.61) rotate(-13.34)" style="fill:#ccc;stroke:#ccc;stroke-miterlimit:10"/><path d="M1658.94,79.21l-1.14-4.81-17.32,4.11-4.11-17.32,17.32-4.11-1.14-4.81a5.93,5.93,0,0,0-7.14-4.4l-19.25,4.56,9.13,38.49,19.25-4.56A5.94,5.94,0,0,0,1658.94,79.21Z" style="fill:#ccc;stroke:#ccc;stroke-miterlimit:10"/><path d="M1585.77,62l-7.7,1.82a13.86,13.86,0,0,1-10.28,16.67l-11.55,2.74L1570.53,92a13.84,13.84,0,0,1,16.67,10.27l7.7-1.82Z" style="fill:#ccc;stroke:#ccc;stroke-miterlimit:10"/></g><g style="opacity:0.32"><path d="M1800.23,45.92l1.87-4.4L1751,53.32l-20.83,48.11,51.09-11.79,16.1-37.19,9.06,10.88a4.25,4.25,0,1,0,7.51-2.61,4.51,4.51,0,0,0-2.57-1.51l-11.1-13.32Z" style="fill:#ccc;stroke:#ccc;stroke-miterlimit:10"/><path d="M1785.81,95.16l-32.5,7.5,19.87,23.86c5.27,6.32,19.78,2.9,32.41-7.62s18.61-24.18,13.35-30.5l-19.88-23.86Z" style="fill:#ccc;stroke:#ccc;stroke-miterlimit:10"/></g><g style="opacity:0.32"><rect x="1917.6" y="54.18" width="9.03" height="68.44" transform="translate(1166.84 1858.12) rotate(-69.52)" style="fill:#ccc;stroke:#ccc;stroke-miterlimit:10"/><path d="M1940.06,47.89l3.15-8.45-5.07-1.9L1935,46l-22.83-8.53-12,32.13,50.73,19,12-32.13Zm2.57,31.8-11.83-4.43,1.89-5.07,11.84,4.42Z" style="fill:#ccc;stroke:#ccc;stroke-miterlimit:10"/><polygon points="1898.61 90.06 1888.86 98.51 1892.4 102.59 1904.38 92.21 1898.61 90.06" style="fill:#ccc;stroke:#ccc;stroke-miterlimit:10"/><rect x="1913.75" y="98.21" width="7.22" height="5.42" transform="translate(1152.02 1861.8) rotate(-69.52)" style="fill:#ccc;stroke:#ccc;stroke-miterlimit:10"/></g><g style="opacity:0.32"><path d="M1699.88-15a4.32,4.32,0,0,1-6.08-.3l28.73,29.73a4.51,4.51,0,0,0,5.79.63,4.26,4.26,0,0,0,.23-6.36L1699.78-21A4.3,4.3,0,0,1,1699.88-15Z" style="fill:#ccc;stroke:#ccc;stroke-miterlimit:10"/><rect x="1684.36" y="13.48" width="6.91" height="17.75" transform="translate(458.41 1178.98) rotate(-44.01)" style="fill:#ccc;stroke:#ccc;stroke-miterlimit:10"/><path d="M1694.77,47.52l28.65-27.68a9.33,9.33,0,0,1-3.88-2.41l-28.7-29.72L1660,17.5l28.71,29.72A4.3,4.3,0,0,0,1694.77,47.52Zm-10.65-40,18.42,19.06-11,10.58-18.42-19.06Z" style="fill:#ccc;stroke:#ccc;stroke-miterlimit:10"/></g><g style="opacity:0.32"><rect x="1199.02" y="-4.8" width="23.99" height="31.99" transform="translate(303.66 813.31) rotate(-42.01)" style="fill:#ccc;stroke:#ccc;stroke-miterlimit:10"/><rect x="1181.85" y="30.73" width="9.6" height="4.8" transform="translate(282.71 802.64) rotate(-42.01)" style="fill:#ccc;stroke:#ccc;stroke-miterlimit:10"/><path d="M1175.59,28l2.68,3,10.7-9.64,9.63,10.7-10.69,9.63,2.67,3a4.8,4.8,0,0,0,6.78.35l11.88-10.7-21.4-23.78L1176,21.25A4.8,4.8,0,0,0,1175.59,28Z" style="fill:#ccc;stroke:#ccc;stroke-miterlimit:10"/><path d="M1234.2,11.87,1239,7.58a11.2,11.2,0,0,1,.82-15.81l7.14-6.42-13.56-.71a11.19,11.19,0,0,1-15.81-.83l-4.76,4.28Z" style="fill:#ccc;stroke:#ccc;stroke-miterlimit:10"/></g><g style="opacity:0.32"><path d="M1487.09,173.54l-1.58,3.53,41.48-8.83,17.51-38.61L1503,138.45l-13.54,29.85-7.18-8.93a3.44,3.44,0,1,0-6.11,2,3.65,3.65,0,0,0,2.06,1.25l8.79,10.94Z" style="fill:#ccc;stroke:#ccc;stroke-miterlimit:10"/><path d="M1499.43,133.92l26.38-5.61-15.73-19.57c-4.17-5.18-15.95-2.62-26.31,5.71s-15.39,19.3-11.22,24.48l15.74,19.56Z" style="fill:#ccc;stroke:#ccc;stroke-miterlimit:10"/></g><g style="opacity:0.32"><path d="M1482,16l-2.67,6.79,4.08,1.6,2.67-6.79,18.34,7.21L1514.61-1l-40.76-16L1463.7,8.8ZM1480.4-9.73,1489.91-6l-1.6,4.07-9.51-3.74Z" style="fill:#ccc;stroke:#ccc;stroke-miterlimit:10"/></g><g style="opacity:0.32"><path d="M1185.27,124.09a4.3,4.3,0,0,1-6.07-.3l28.72,29.73a4.52,4.52,0,0,0,5.79.64,4.28,4.28,0,0,0,.24-6.37L1185.18,118A4.31,4.31,0,0,1,1185.27,124.09Z" style="fill:#ccc;stroke:#ccc;stroke-miterlimit:10"/><rect x="1169.75" y="152.55" width="6.91" height="17.75" transform="translate(217.28 860.48) rotate(-44.01)" style="fill:#ccc;stroke:#ccc;stroke-miterlimit:10"/><path d="M1180.16,186.58l28.65-27.68a9.18,9.18,0,0,1-3.87-2.4l-28.71-29.72-30.83,29.79,28.71,29.71A4.27,4.27,0,0,0,1180.16,186.58Zm-10.65-40,18.42,19.06-11,10.58-18.42-19.06Z" style="fill:#ccc;stroke:#ccc;stroke-miterlimit:10"/></g><g style="opacity:0.32"><rect x="1017.31" y="-11.75" width="23.99" height="31.99" transform="translate(22.93 220.34) rotate(-12.36)" style="fill:#ccc;stroke:#ccc;stroke-miterlimit:10"/><rect x="992.47" y="8.86" width="9.6" height="4.8" transform="translate(20.69 213.65) rotate(-12.36)" style="fill:#ccc;stroke:#ccc;stroke-miterlimit:10"/><path d="M990.19,1.35l.86,3.9,14.06-3.08,3.08,14.07-14.06,3.08.85,3.9a4.8,4.8,0,0,0,5.72,3.66l15.62-3.42-6.84-31.25L993.85-4.37A4.8,4.8,0,0,0,990.19,1.35Z" style="fill:#ccc;stroke:#ccc;stroke-miterlimit:10"/><path d="M1049.12,16.3l6.25-1.37a11.19,11.19,0,0,1,8.54-13.33l9.38-2.06-11.43-7.32a11.21,11.21,0,0,1-13.34-8.54l-6.25,1.37Z" style="fill:#ccc;stroke:#ccc;stroke-miterlimit:10"/></g><g style="opacity:0.32"><path d="M806.48,178.6l-1.57,3.53,41.47-8.82,17.51-38.62-41.47,8.83-13.54,29.84-7.17-8.92a3.44,3.44,0,1,0-6.11,2,3.61,3.61,0,0,0,2,1.26l8.79,10.93Z" style="fill:#ccc;stroke:#ccc;stroke-miterlimit:10"/><path d="M818.82,139l26.39-5.62-15.74-19.56c-4.17-5.18-16-2.63-26.31,5.71S787.77,138.81,791.94,144l15.74,19.57Z" style="fill:#ccc;stroke:#ccc;stroke-miterlimit:10"/></g><g style="opacity:0.32"><rect x="835.86" y="-37.11" width="7.3" height="55.35" transform="translate(541.05 775.29) rotate(-68.53)" style="fill:#ccc;stroke:#ccc;stroke-miterlimit:10"/><path d="M824.44,23.07l-2.67,6.8,4.07,1.6,2.67-6.79,18.34,7.21L857,6.08l-40.75-16L806.1,15.86ZM822.8-2.67l9.51,3.74L830.7,5.15l-9.51-3.74Z" style="fill:#ccc;stroke:#ccc;stroke-miterlimit:10"/></g><g style="opacity:0.32"><path d="M675-23.88a4.32,4.32,0,0,1-6.08-.3L697.69,5.55a4.51,4.51,0,0,0,5.79.63,4.26,4.26,0,0,0,.23-6.36L674.94-30A4.3,4.3,0,0,1,675-23.88Z" style="fill:#ccc;stroke:#ccc;stroke-miterlimit:10"/><rect x="659.52" y="4.57" width="6.91" height="17.75" transform="translate(176.82 464.41) rotate(-44.01)" style="fill:#ccc;stroke:#ccc;stroke-miterlimit:10"/><path d="M669.93,38.61l28.65-27.68a9.33,9.33,0,0,1-3.88-2.41L666-21.19,635.16,8.59l28.71,29.72A4.3,4.3,0,0,0,669.93,38.61Zm-10.65-40L677.7,17.65l-11,10.58L648.33,9.17Z" style="fill:#ccc;stroke:#ccc;stroke-miterlimit:10"/></g><g style="opacity:0.32"><rect x="517.08" y="-11.73" width="23.99" height="31.99" transform="translate(11.34 113.31) rotate(-12.36)" style="fill:#ccc;stroke:#ccc;stroke-miterlimit:10"/><rect x="492.24" y="8.88" width="9.6" height="4.8" transform="translate(9.1 106.61) rotate(-12.36)" style="fill:#ccc;stroke:#ccc;stroke-miterlimit:10"/><path d="M490,1.37l.85,3.91L504.88,2.2,508,16.26l-14.07,3.08.86,3.91a4.8,4.8,0,0,0,5.71,3.66l15.63-3.42L509.24-7.76,493.62-4.34A4.79,4.79,0,0,0,490,1.37Z" style="fill:#ccc;stroke:#ccc;stroke-miterlimit:10"/><path d="M548.89,16.32,555.14,15a11.19,11.19,0,0,1,8.54-13.34l9.37-2.05L561.62-7.75a11.19,11.19,0,0,1-13.33-8.55L542-14.93Z" style="fill:#ccc;stroke:#ccc;stroke-miterlimit:10"/></g><g style="opacity:0.32"><path d="M321.25,26.63l-1.58,3.53,41.48-8.82,17.51-38.62L337.19-8.46,323.65,21.39l-7.18-8.93a3.44,3.44,0,1,0-6.11,2,3.72,3.72,0,0,0,2.06,1.26l8.79,10.93Z" style="fill:#ccc;stroke:#ccc;stroke-miterlimit:10"/><path d="M333.59-13,360-18.6,344.24-38.17c-4.17-5.18-15.95-2.62-26.31,5.71S302.54-13.16,306.71-8l15.74,19.57Z" style="fill:#ccc;stroke:#ccc;stroke-miterlimit:10"/></g><g style="opacity:0.32"><rect x="199.63" y="-25.08" width="7.3" height="55.35" transform="translate(126.47 190.82) rotate(-68.53)" style="fill:#ccc;stroke:#ccc;stroke-miterlimit:10"/><path d="M188.21,35.1l-2.68,6.79,4.08,1.61,2.67-6.8,18.34,7.22L220.77,18.1,180,2.08,169.87,27.89ZM186.56,9.36l9.51,3.74-1.6,4.07L185,13.43Z" style="fill:#ccc;stroke:#ccc;stroke-miterlimit:10"/><polygon points="222.31 1.58 230.31 -5.11 227.5 -8.46 217.67 -0.24 222.31 1.58" style="fill:#ccc;stroke:#ccc;stroke-miterlimit:10"/></g><g style="opacity:0.32"><rect x="1028.46" y="98.83" width="7.3" height="55.35" transform="translate(536.67 1040.72) rotate(-68.53)" style="fill:#ccc;stroke:#ccc;stroke-miterlimit:10"/><path d="M1017,159l-2.67,6.79,4.08,1.6,2.67-6.79,18.34,7.21L1049.61,142l-40.76-16L998.7,151.8Zm-1.64-25.74,9.51,3.74-1.6,4.07-9.51-3.74Z" style="fill:#ccc;stroke:#ccc;stroke-miterlimit:10"/><polygon points="1051.15 125.49 1059.15 118.8 1056.34 115.44 1046.51 123.67 1051.15 125.49" style="fill:#ccc;stroke:#ccc;stroke-miterlimit:10"/><polygon points="1018.88 112.8 1023.52 114.63 1021.92 101.91 1017.58 102.45 1018.88 112.8" style="fill:#ccc;stroke:#ccc;stroke-miterlimit:10"/><rect x="1033.21" y="114.26" width="5.84" height="4.38" transform="translate(548.57 1038.09) rotate(-68.53)" style="fill:#ccc;stroke:#ccc;stroke-miterlimit:10"/></g></svg>