<svg id="Capa_1" data-name="Capa 1" xmlns="http://www.w3.org/2000/svg" viewBox="0 0 600 196"><title>LOGO</title><g id="SVGRepo_iconCarrier" data-name="SVGRepo iconCarrier"><path d="M455.92,103.85c22.93,18.89,53.06,6.24,70.89-13.48a37.55,37.55,0,0,1,4.64-4.24c7.55-.35,15.75.5,22.47,4.24,0,0-12,9.11-16.63,19.1,0,0,13.51,2.75,24.13-3.93a59.93,59.93,0,0,1-12.65,29.77,117.29,117.29,0,0,1-11.48,2.87c-69.7,13.73-89.76-25.88-89.76-25.88Z" style="fill:#ff8c00"/><path d="M537.29,109.47c4.58-10,16.63-19.1,16.63-19.1-6.72-3.74-14.92-4.59-22.47-4.24C551.13,70.59,587.63,70,587.63,70s17.1,48.14-38.86,65.3a59.82,59.82,0,0,0,12.65-29.77C550.8,112.22,537.29,109.47,537.29,109.47Z" style="fill:#ccc"/><path d="M170.7,48S191.64,18.6,232,18.6c0,0,4.07,38.08-21.74,67.53" style="fill:#ff8c00"/><path d="M171.07,56.55a60.9,60.9,0,0,1,47.55-22.77s3.15,29.52-16.86,52.35" style="fill:#ffb6c1"/><path d="M79.57,48S58.63,18.6,18.23,18.6c0,0-4.06,38.08,21.75,67.53" style="fill:#ff8c00"/><path d="M79.2,56.55A60.9,60.9,0,0,0,31.65,33.78S28.5,63.3,48.51,86.13" style="fill:#ffb6c1"/><path d="M126.28,31.61s-85,0-105.75,107.3c0,0,79.39-16,105.75,25.1C147.7,127.15,232,138.91,232,138.91,211.28,31.61,126.28,31.61,126.28,31.61Z" style="fill:#ff8c00"/><path d="M66.58,54.9S79,60.43,97.29,87.12c19.42,28.35,15,62.9,15,62.9s-23.57-17-91.76-11.11C20.53,138.91,25.14,85.64,66.58,54.9Z" style="fill:#ccc"/><path d="M186.42,54.9S174,60.43,155.71,87.12c-19.43,28.35-15,62.9-15,62.9s23.57-17,91.77-11.11C232.46,138.91,227.86,85.64,186.42,54.9Z" style="fill:#ccc"/><circle cx="170.69" cy="99.52" r="8.89"/><circle cx="174.43" cy="97.81" r="3.36" style="fill:#fff"/><circle cx="82.3" cy="99.52" r="8.89"/><circle cx="85.66" cy="97.81" r="3.36" style="fill:#fff"/><path d="M140.27,150a14,14,0,1,1-28,0"/></g><path d="M230.27,93.75c.74,1.55,1.33,2.85,1.86,4s1,2.33,1.49,3.54,1,2.49,1.57,4c1.63-.61,2.5-.91,4.29-1.51.57,1.61,1,3,1.43,4.32s.76,2.51,1.1,3.69.69,2.38,1,3.65.69,2.64,1.05,4.18l-4.51.09c.38,1.6.67,2.92.91,4.13s.44,2.33.63,3.52.37,2.44.54,3.92c1,.24,1.79.42,2.58.59l2.68.58c.23,2,.35,3.63.43,5.13s.12,2.86.12,4.31,0,3-.15,4.74c-1.29-.59-2.34-1.1-3.31-1.58s-1.85-.92-2.78-1.42-1.91-1-3.06-1.68c.12-1.51.17-3,.16-4.49s-.08-3-.19-4.41-.27-2.9-.47-4.33-.43-2.85-.7-4.27-.59-2.82-.93-4.23-.72-2.82-1.13-4.24-.86-2.86-1.35-4.31-1-2.92-1.57-4.42-1.17-3-1.83-4.57S228.78,99.6,228,98s-1.62-3.34-2.53-5.09-1.92-3.55-3-5.42-2.27-3.8-3.56-5.81c.82-1,1.55-1.87,2.26-2.65s1.39-1.5,2.17-2.27,1.62-1.57,2.7-2.53c1,1.66,1.86,3.11,2.62,4.46s1.46,2.6,2.13,3.86,1.31,2.51,2,3.88,1.39,2.83,2.16,4.52c-1,.56-1.7,1-2.4,1.41S231.15,93.17,230.27,93.75Z" style="fill:#ff8c00;stroke:#ccc"/><path d="M254.79,111.13c.79,2,1.49,3.83,2.13,5.59s1.21,3.43,1.73,5,1,3.14,1.43,4.63.84,2.94,1.22,4.37.72,2.83,1,4.25.63,2.83.91,4.27.54,2.9.78,4.41.46,3.06.66,4.68.36,3.3.49,5.06l-2.86-.91c-.85-.27-1.69-.55-2.8-.94-.14-1.71-.31-3.26-.5-4.73s-.39-2.83-.62-4.17-.46-2.66-.74-4-.58-2.77-.94-4.29-.77-3.16-1.28-5c0,1.78,0,3.35,0,4.78s-.12,2.73-.21,4-.2,2.42-.34,3.61-.3,2.39-.5,3.65-.46,2.57-.77,4c-1-.4-1.77-.71-2.52-1s-1.48-.62-2.45-1.05q.52-2.19.87-4.29c.23-1.4.41-2.78.55-4.13s.25-2.7.32-4.05.12-2.69.13-4.08,0-2.79-.06-4.27-.13-3-.26-4.65-.29-3.38-.51-5.26-.55-4-.86-6.11c-.73-1.75-1.44-3.48-2.15-5.07s-1.41-3.09-2.11-4.53-1.4-2.79-2.1-4.11-1.4-2.6-2.11-3.86-1.44-2.48-2.2-3.71-1.52-2.46-2.33-3.71-1.66-2.51-2.57-3.8-1.86-2.63-2.89-4-2.13-2.81-3.32-4.29c.85-.73,1.52-1.27,2.19-1.8s1.37-1.06,2.32-1.76c1,1.35,2,2.61,2.88,3.8s1.68,2.31,2.44,3.4,1.49,2.17,2.2,3.24,1.41,2.16,2.12,3.29,1.43,2.32,2.18,3.6,1.54,2.66,2.37,4.18c-.45-1.67-.89-3.2-1.32-4.64s-.86-2.78-1.29-4.08-.85-2.56-1.29-3.82-.91-2.52-1.4-3.82-1-2.66-1.6-4.1-1.22-3-1.95-4.65c1-.64,1.79-1.1,2.57-1.57s1.59-.92,2.68-1.51c.8,1.92,1.52,3.75,2.18,5.5s1.27,3.44,1.83,5.06,1.08,3.19,1.56,4.72.93,3,1.36,4.49.82,2.92,1.2,4.37.74,2.9,1.09,4.37.67,3,1,4.47.61,3.07.9,4.67.56,3.27.82,5S254.52,109.26,254.79,111.13Z" style="fill:#ff8c00;stroke:#ccc"/><path d="M277,108c.23,1.86.38,3.57.45,5.15s.05,3,0,4.3a25.46,25.46,0,0,1-.44,3.5,8.37,8.37,0,0,1-1.34,3.43,2.49,2.49,0,0,1-2.06,1.09l-2.67,0c.27,1.86.49,3.57.67,5.16s.32,3.07.43,4.48.2,2.75.26,4.06.11,2.58.13,3.86,0,2.56,0,3.87-.06,2.67-.13,4.08-.17,2.89-.31,4.45l-2.55-.69c-.76-.21-1.52-.42-2.51-.72.12-1.55.22-3.08.27-4.61s.08-3,.08-4.54-.05-3-.11-4.48-.15-2.95-.27-4.41-.25-2.92-.41-4.37-.34-2.9-.55-4.35-.43-2.88-.68-4.32-.52-2.89-.81-4.34-.6-2.9-.93-4.37-.69-2.94-1.06-4.42-.7-2.94-1.07-4.43-.76-3-1.18-4.48-.85-3-1.31-4.51-.95-3-1.47-4.55-1.06-3.08-1.64-4.64-1.18-3.13-1.83-4.73-1.32-3.21-2-4.85-1.48-3.31-2.29-5-1.66-3.41-2.56-5.16-1.85-3.52-2.86-5.33c1.47-.77,2.6-1.33,3.76-1.88s2.32-1.09,3.92-1.79a3.25,3.25,0,0,1,2.31-.06A8.81,8.81,0,0,1,257,59.94a24.23,24.23,0,0,1,3.37,3.37c.71.86,1.43,1.79,2.15,2.81s1.44,2.11,2.16,3.29,1.43,2.44,2.13,3.78,1.4,2.78,2.08,4.29,1.34,3.12,2,4.81c.39,1,.8,2.18,1.22,3.41s.83,2.57,1.26,4c.48,1.63.92,3.24,1.3,4.83s.72,3.14,1,4.67.54,3,.74,4.51S276.77,106.55,277,108Zm-9.32-17c-.43-1.38-.76-2.35-1-2.93a35.7,35.7,0,0,0-1.43-3.47A19.73,19.73,0,0,0,263.8,82c-.92-1.38-1.74-2-2.4-1.75-.87.27-1.3.4-2.14.68.68,1.74,1.26,3.31,1.79,4.78s1,2.86,1.44,4.21.86,2.66,1.27,4,.82,2.76,1.24,4.27.85,3.15,1.29,5l2.15-.34c.51-.08.84-.57,1-1.48a13.51,13.51,0,0,0-.21-4A48.89,48.89,0,0,0,267.63,90.94Z" style="fill:#ff8c00;stroke:#ccc"/><path d="M297.73,144.21l-3.77-.28-3.72-.31c-.11,1.6-.24,3-.37,4.24s-.28,2.43-.43,3.57-.32,2.27-.52,3.48-.43,2.5-.71,3.94l-2.9-.52-2.86-.56c.31-1.56.58-3.1.81-4.65s.44-3.07.61-4.6.32-3.05.43-4.57.21-3,.27-4.53.1-3,.11-4.51,0-3,0-4.49-.08-3-.16-4.5-.17-3-.29-4.51-.25-3-.41-4.55-.34-3.06-.54-4.61-.43-3.11-.67-4.69-.41-3.09-.62-4.68-.45-3.17-.7-4.75-.53-3.17-.82-4.77-.61-3.19-.95-4.79-.7-3.23-1.09-4.86-.81-3.27-1.25-4.93-.92-3.33-1.42-5-1-3.41-1.6-5.14-1.18-3.48-1.82-5.26S271,59.78,270.25,58s-1.49-3.68-2.31-5.56c1.4-.43,2.47-.75,3.54-1.06s2.15-.61,3.62-1q1.53,2.52,2.94,5c.93,1.64,1.83,3.27,2.68,4.89s1.67,3.21,2.45,4.79,1.53,3.16,2.24,4.73,1.4,3.11,2,4.65,1.27,3.08,1.87,4.6,1.16,3,1.71,4.57,1.06,3,1.56,4.54,1,3,1.43,4.53.88,3,1.29,4.54.81,3,1.19,4.57.7,3,1.11,4.52.82,3.06,1.2,4.58.73,3,1.07,4.52.65,3,.95,4.49.58,3,.85,4.46.5,3,.72,4.46.43,3,.61,4.48.34,3,.48,4.49.26,3,.36,4.54.17,3,.21,4.59.07,3.08.06,4.64,0,3.12-.1,4.7-.16,3.17-.29,4.77c-1.24-.12-2.17-.23-3.09-.33l-3-.37c.11-1.54.18-2.91.23-4.19s.07-2.47.08-3.67,0-2.42,0-3.75S297.82,145.88,297.73,144.21Zm-2.89-22.81c-.36-1.84-.73-3.58-1.11-5.26s-.75-3.27-1.14-4.83-.79-3.06-1.19-4.55-.73-2.87-1.09-4.32-.73-2.89-1.13-4.36-.83-2.94-1.29-4.46-1-3.11-1.51-4.75-1.14-3.37-1.81-5.19c.43,1.86.8,3.62,1.14,5.3s.63,3.27.9,4.82.51,3,.73,4.51.42,2.92.61,4.38.33,2.83.56,4.32.44,3,.64,4.53.39,3.13.56,4.78.33,3.37.46,5.18Z" style="fill:#ff8c00;stroke:#ccc"/><path d="M325.86,162.17l-3.11,0-3.09-.08c.09-1.58.15-3.13.18-4.64s0-3,0-4.46-.08-2.89-.15-4.31-.17-2.81-.28-4.19-.25-2.76-.4-4.12-.32-2.73-.51-4.09-.4-2.74-.63-4.12-.47-2.77-.74-4.19-.56-2.85-.88-4.33-.65-3-1-4.52-.77-3.14-1.21-4.79-.91-3.35-1.43-5.13-1.14-3.7-1.65-5.48-1.05-3.83-1.65-5.84c.37,2.19.68,4.39,1,6.31s.74,4,1.05,5.91.58,3.7.81,5.45.44,3.43.62,5.07.32,3.22.44,4.77.22,3.06.3,4.56.13,3,.17,4.42.05,2.92,0,4.37,0,2.9-.09,4.36-.13,2.94-.23,4.43-.23,3-.39,4.55-.35,3.1-.57,4.7-.49,3.23-.8,4.9l-3-.22-3-.26c.27-1.59.5-3.18.7-4.76s.37-3.15.5-4.71.25-3.11.33-4.65.14-3.08.17-4.61,0-3.06,0-4.58-.06-3-.12-4.54-.15-3-.25-4.54-.23-3-.38-4.53-.31-3-.5-4.55-.39-3-.62-4.58-.47-3.07-.74-4.63-.55-3.12-.86-4.7-.52-3.07-.78-4.65-.54-3.15-.84-4.71-.61-3.13-.95-4.69-.7-3.12-1.08-4.69-.78-3.12-1.21-4.69-.88-3.15-1.35-4.73-1-3.17-1.51-4.77-1.09-3.21-1.67-4.83-1.21-3.26-1.87-4.91-1.34-3.31-2.06-5-1.49-3.37-2.3-5.08-1.64-3.43-2.54-5.18l3.37-.66c1-.19,2-.38,3.41-.61,1.05,1.55,2,3.07,3,4.55s1.84,2.94,2.69,4.37,1.67,2.83,2.44,4.22,1.52,2.74,2.23,4.1,1.39,2.68,2,4,1.29,2.65,1.9,4,1.21,2.65,1.78,4,1.14,2.66,1.69,4,1.07,2.72,1.6,4.11,1,2.81,1.53,4.26,1,2.94,1.48,4.46.95,3.1,1.42,4.73.92,3.3,1.36,5.05,1,3.43,1.54,5.26,1,3.69,1.54,5.6q-.39-2.88-.85-5.64c-.3-1.85-.64-3.55-.87-5.31s-.47-3.47-.73-5.12-.52-3.24-.81-4.79-.58-3.06-.88-4.54-.63-2.92-1-4.34-.68-2.82-1-4.2-.73-2.75-1.12-4.11-.79-2.71-1.21-4.07-.86-2.71-1.32-4.07-.95-2.74-1.46-4.13-1.05-2.79-1.61-4.21-1.17-2.87-1.8-4.34-1.3-3-2-4.5-1.47-3.09-2.28-4.69c1.42-.18,2.5-.3,3.57-.42l3.61-.37c.85,1.7,1.66,3.37,2.42,5s1.49,3.32,2.19,5,1.34,3.27,2,4.9,1.21,3.23,1.77,4.83,1.09,3.19,1.59,4.78,1,3.17,1.41,4.74.87,3.15,1.26,4.71.77,3.14,1.12,4.7.68,3.13,1,4.7.59,3.14.86,4.71.51,3.16.74,4.75.43,3.31.63,4.79.48,3.1.74,4.69.48,3.16.69,4.72.39,3.12.56,4.66.31,3.08.44,4.61.23,3,.31,4.57.14,3,.18,4.55.06,3,.05,4.55,0,3-.09,4.56-.13,3-.24,4.58-.24,3.07-.4,4.61-.35,3.08-.57,4.64-.48,3.11-.76,4.68S326.22,160.58,325.86,162.17Z" style="fill:#ff8c00;stroke:#ccc"/><path d="M332.77,48.56c.82.87,1.65,1.83,2.49,2.89s1.79,2.23,2.69,3.5,1.8,2.64,2.69,4.13,1.76,3.08,2.62,4.8c.57,1.15,1.13,2.34,1.67,3.57S346,70,346.5,71.29s1,2.7,1.46,4.12.91,2.89,1.33,4.41.81,3.09,1.18,4.72.71,3.31,1,5c.28,1.57.53,3.14.74,4.7s.41,3.13.56,4.68.24,3,.45,4.47c.28,1.91.5,3.75.68,5.55s.31,3.53.41,5.22.15,3.34.16,4.93,0,3.14-.06,4.64-.14,3-.26,4.38-.28,2.79-.45,4.12-.39,2.62-.62,3.87c-.33,1.76-.69,3.41-1.1,5s-.82,3-1.27,4.39-.93,2.65-1.44,3.85-1.05,2.32-1.59,3.36-1.11,2-1.67,2.89a24,24,0,0,1-2.79,3.65,11.22,11.22,0,0,1-2.66,2.16,5,5,0,0,1-2.47.72l-4.49,0h-4.28c.36-1.58.7-3.16,1-4.73s.56-3.13.8-4.69.43-3.11.6-4.65.32-3.09.43-4.62.21-3.07.27-4.59.1-3,.12-4.58,0-3,0-4.57-.09-3-.16-4.57-.17-3.06-.29-4.59-.26-3.08-.42-4.63-.34-3.11-.53-4.68-.43-3.16-.67-4.76-.52-3.22-.7-4.71-.38-3.22-.6-4.82-.45-3.19-.71-4.77-.53-3.16-.83-4.74-.61-3.14-1-4.71-.7-3.14-1.09-4.72-.79-3.14-1.23-4.72-.9-3.16-1.39-4.75-1-3.19-1.56-4.79-1.13-3.22-1.74-4.84-1.26-3.25-1.94-4.89-1.41-3.3-2.17-5-1.56-3.34-2.4-5c1.39-.1,2.56-.18,3.65-.24s2.12-.12,3.22-.17,2.28-.1,3.71-.14a6.82,6.82,0,0,1,2.69.51,14.2,14.2,0,0,1,3.08,1.68A20.84,20.84,0,0,1,332.77,48.56ZM346.42,128q.34-1.64.57-3.57c.15-1.29.25-2.68.32-4.19s.07-3.11,0-4.84-.15-3.58-.32-5.55-.42-4.07-.75-6.3c-.18-1.3-.28-2.51-.44-3.89s-.34-2.81-.56-4.27c-.33-2.12-.7-4.1-1.11-5.92s-.85-3.52-1.32-5.07-1-3-1.48-4.26a37.58,37.58,0,0,0-1.6-3.5,18,18,0,0,0-3.2-4.6,4.12,4.12,0,0,0-3-1.43l-2.51.12c.5,1.76.95,3.48,1.37,5.17s.81,3.33,1.16,4.95.67,3.2,1,4.76.56,3.11.81,4.63.47,3,.67,4.54.39,3,.56,4.5.28,2.87.52,4.37.45,3,.65,4.47.38,3,.54,4.43.31,3,.44,4.46.23,3,.32,4.53.15,3.08.2,4.65.06,3.18,0,4.81,0,3.31-.11,5h2.35c1,0,1.91-.65,2.73-2A18.86,18.86,0,0,0,346.42,128Z" style="fill:#ff8c00;stroke:#ccc"/><path d="M370.24,88.82c.21,1.75.39,3.39.54,5s.27,3.07.37,4.52.18,2.85.26,4.1.35,2.77.5,4.14.27,2.75.39,4.16.21,2.87.29,4.39.14,3.11.17,4.8l-4.13,0-3.58,0H357.2c-.07-1.68-.16-3.26-.27-4.77s-.24-3-.37-4.35-.29-2.77-.46-4.13-.43-2.84-.55-4.09-.21-2.63-.34-4.07-.28-2.92-.46-4.48-.39-3.19-.64-4.92l4.4-.09,3.74-.08,3.72-.08Z" style="fill:#ff8c00;stroke:#ccc"/><path d="M389.36,45q1.27,2.3,2.4,4.62t2.1,4.63c.65,1.55,1.26,3.11,1.83,4.66s1.09,3.12,1.58,4.69.93,3.14,1.35,4.71.79,3.16,1.13,4.75.66,3.19.95,4.8.53,3.23.76,4.86.41,3.27.58,4.93.31,3.34.42,5,.2,3.4.26,5.14,0,3.29.21,5,.33,3.48.45,5.18.2,3.38.25,5,.07,3.31.06,4.93-.06,3.24-.14,4.83-.2,3.18-.35,4.76-.33,3.14-.55,4.69-.47,3.11-.77,4.65-.63,3.08-1,4.61-.8,3.05-1.26,4.58-1,3-1.53,4.55-1.17,3-1.83,4.54-1.37,3-2.14,4.52l-2.67.32-2.71.28q1-2.18,1.93-4.29c.58-1.41,1.12-2.8,1.61-4.18s.94-2.74,1.34-4.09.78-2.7,1.12-4,.64-2.67.91-4,.52-2.68.74-4,.41-2.71.58-4.1.3-2.78.42-4.22.2-2.9.27-4.41.09-3.07.1-4.68,0-3.27-.08-5-.16-3.54-.31-5.44-.48-4.12-.55-6-.12-4-.24-6.2c0,2.17-.06,4.38-.11,6.21s.2,4,.23,5.95,0,3.71,0,5.45-.1,3.41-.2,5-.22,3.17-.37,4.68-.32,3-.52,4.43-.43,2.85-.68,4.24-.52,2.76-.82,4.12-.63,2.71-1,4.05-.74,2.69-1.16,4-.87,2.7-1.36,4.07-1,2.74-1.59,4.13-1.2,2.81-1.87,4.24-1.41,2.88-2.2,4.36c-1.86.16-2.81.23-4.72.36.55-1.48,1-2.95,1.48-4.39s.84-2.86,1.19-4.27.66-2.79.94-4.17.51-2.75.72-4.11.39-2.72.54-4.08.27-2.73.37-4.1.17-2.76.22-4.17.06-2.83.06-4.28,0-3-.1-4.48-.15-3.1-.27-4.73-.27-3.31-.47-5.06-.42-3.58-.69-5.49-.73-4.09-.94-5.94-.44-4.1-.72-6.28c.16,2.18.25,4.43.35,6.29s.44,4,.6,5.94.3,3.74.39,5.49.14,3.44.17,5.07,0,3.21,0,4.74-.09,3-.17,4.48-.19,2.89-.32,4.3-.29,2.8-.47,4.17-.39,2.75-.62,4.12-.49,2.73-.79,4.1-.61,2.75-1,4.14-.76,2.79-1.19,4.2-.92,2.86-1.45,4.31-1.11,2.94-1.74,4.44l-2.92.16-3,.13c.61-1.53,1.17-3,1.69-4.58s1-3.05,1.42-4.57.83-3,1.18-4.57.68-3,1-4.56.53-3,.75-4.57.4-3.05.55-4.58.28-3.06.38-4.6.16-3.08.2-4.63.05-3.12,0-4.69-.06-3.15-.13-4.74-.16-3.2-.29-4.82-.27-3.27-.45-4.93-.39-3.35-.48-4.86-.19-3.35-.32-5-.27-3.29-.45-4.91-.36-3.24-.58-4.85-.46-3.2-.73-4.79-.56-3.17-.88-4.75-.67-3.15-1-4.73-.78-3.14-1.21-4.71-.9-3.14-1.4-4.71-1-3.15-1.6-4.72-1.18-3.15-1.82-4.73-1.33-3.16-2.06-4.75-1.5-3.17-2.32-4.76l4.16.09,4.1.13q1.38,2.25,2.6,4.44T375,52.45c.72,1.43,1.41,2.85,2,4.25s1.25,2.81,1.83,4.2,1.12,2.77,1.63,4.15,1,2.76,1.46,4.14.89,2.76,1.3,4.16.81,2.79,1.17,4.21.72,2.84,1,4.3.64,2.93.93,4.43.56,3,.81,4.61.49,3.19.7,4.85.4,3.55.58,5.11.53,3.39.81,5.19.54,3.62.76,5.45.42,3.67.58,5.54.27,3.75.35,5.65q.29-3,.43-6t.14-5.89c0-2,0-3.87-.1-5.78s-.11-3.63-.06-5.48.06-3.64.05-5.37-.05-3.42-.11-5.06-.13-3.25-.24-4.82-.23-3.11-.37-4.62-.32-3-.51-4.5-.41-2.94-.65-4.4-.5-2.91-.8-4.35-.61-2.9-1-4.35-.74-2.9-1.15-4.36-.88-2.92-1.37-4.4-1-3-1.62-4.46-1.22-3-1.91-4.54l3.81.31C386.76,44.71,387.88,44.82,389.36,45Z" style="fill:#ff8c00;stroke:#ccc"/><path d="M398.7,46.23c.86,1.47,1.66,2.94,2.41,4.43s1.45,3,2.11,4.46,1.26,3,1.82,4.5,1.09,3,1.57,4.55.93,3,1.34,4.59.78,3.08,1.12,4.64.64,3.12.91,4.7.52,3.16.73,4.77.4,3.22.56,4.86.28,3.29.38,5,.17,3.37.21,5.09,0,3.25.17,5,.31,3.45.42,5.14.18,3.34.21,5,0,3.26,0,4.86-.1,3.19-.19,4.76-.24,3.13-.4,4.68-.38,3.08-.62,4.61-.53,3-.85,4.55-.69,3-1.1,4.5-.86,3-1.35,4.47-1.05,3-1.64,4.43-1.25,2.94-1.95,4.4-1.46,2.92-2.28,4.37c-1,.18-1.79.3-2.56.42s-1.56.24-2.61.38q1.19-2.22,2.2-4.47c.67-1.49,1.3-3,1.87-4.49s1.09-3,1.57-4.51.91-3,1.29-4.55.74-3,1-4.57.58-3.07.81-4.62.42-3.1.57-4.66.28-3.14.37-4.73.14-3.19.16-4.81,0-3.26,0-4.91-.13-3.33-.24-5-.26-3.42-.44-5.17-.14-3.3-.19-5-.14-3.44-.24-5.12-.25-3.36-.41-5-.35-3.29-.57-4.91-.47-3.23-.75-4.83-.59-3.19-.93-4.77-.72-3.15-1.13-4.71-.86-3.12-1.34-4.67-1-3.1-1.58-4.64S398,56,397.33,54.51s-1.36-3-2.11-4.58-1.55-3-2.4-4.55c1.2.15,2.09.28,3,.4S397.55,46,398.7,46.23Z" style="fill:#ff8c00;stroke:#ccc"/><path d="M420.47,154c-1.7.6-2.58.88-4.37,1.42.75-1.31,1.42-2.62,2-3.92s1.13-2.6,1.61-3.89.89-2.59,1.26-3.89.69-2.59,1-3.89.52-2.62.72-3.94.36-2.67.49-4,.22-2.76.27-4.19.08-2.9.07-4.42-.07-3.08-.17-4.71-.23-3.34-.42-5.12-.43-3.65-.73-5.63-.84-4.33-1.05-6.2-.43-4.28-.74-6.56c.09,2.28.1,4.67.12,6.55s.36,4.24.48,6.22.18,3.86.2,5.66,0,3.51-.08,5.16-.16,3.25-.3,4.79-.3,3-.51,4.49-.44,2.89-.71,4.29-.57,2.79-.91,4.16-.72,2.73-1.14,4.09-.88,2.72-1.39,4.08-1.06,2.72-1.68,4.1-1.29,2.76-2,4.16-1.55,2.82-2.44,4.25c-1.91.44-2.89.65-4.87,1q1.25-2.15,2.33-4.31c.71-1.44,1.38-2.89,2-4.34s1.17-2.92,1.68-4.38,1-2.94,1.39-4.42.79-3,1.13-4.45.62-3,.87-4.51.47-3,.65-4.57.31-3.08.42-4.64.17-3.14.21-4.73,0-3.21,0-4.84-.1-3.28-.2-5-.24-3.38-.41-5.11-.11-3.26-.15-5-.11-3.4-.2-5.06-.22-3.31-.37-4.93-.33-3.23-.54-4.83-.45-3.16-.72-4.73-.57-3.11-.9-4.65-.71-3.07-1.12-4.59-.84-3-1.33-4.54-1-3-1.56-4.48-1.17-3-1.83-4.44-1.35-2.94-2.1-4.39-1.56-2.91-2.42-4.35l2.78.56,2.71.61c1,1.4,2,2.77,2.92,4.13s1.75,2.7,2.54,4,1.53,2.65,2.22,4,1.34,2.62,1.95,3.92,1.18,2.61,1.72,3.92,1,2.62,1.52,4,.93,2.67,1.36,4,.82,2.75,1.2,4.17.73,2.89,1.06,4.39.64,3.05.93,4.66.54,3.29.77,5,.43,3.57.6,5.48.5,3.68.83,5.68.61,4,.85,6.06c-.05-2.2-.17-4.37-.34-6.52s-.27-4-.28-6.06-.07-3.94-.16-5.76-.21-3.57-.36-5.24-.34-3.28-.55-4.83-.46-3-.72-4.52-.57-2.89-.9-4.29-.68-2.78-1.07-4.14-.81-2.71-1.27-4.05-1-2.68-1.51-4-1.14-2.66-1.79-4-1.35-2.68-2.11-4-1.6-2.7-2.52-4.06c1,.32,1.74.57,2.46.83s1.45.53,2.39.9c1,1.35,1.85,2.71,2.67,4.1s1.59,2.78,2.3,4.2,1.34,2.86,1.94,4.32,1.13,2.92,1.63,4.41.94,3,1.34,4.52.75,3.07,1.07,4.64.59,3.15.83,4.75.44,3.24.6,4.89.29,3.34.38,5,.14,3.45.16,5.23-.09,3.34.09,5.15.3,3.58.39,5.31.13,3.44.13,5.12,0,3.32-.13,5-.22,3.23-.4,4.81-.41,3.14-.68,4.68-.6,3.08-1,4.59-.8,3-1.28,4.49-1,3-1.61,4.4-1.26,2.9-2,4.33-1.51,2.85-2.38,4.25S421.48,152.59,420.47,154Z" style="fill:#ff8c00;stroke:#ccc"/><path d="M434,61.26c.87.91,1.77,1.92,2.68,3s1.85,2.34,2.77,3.69a46.13,46.13,0,0,1,2.71,4.48c.53,1,1,2,1.52,3.13s.93,2.24,1.36,3.46.81,2.49,1.17,3.85.67,2.78.93,4.29.5,3.11.66,4.8c.13,1.27.22,2.56.28,3.86s.09,2.62.09,3.94a30.59,30.59,0,0,0,0,3.71c.21,1.91.34,3.73.4,5.47s.05,3.39,0,5-.21,3.09-.4,4.53-.43,2.81-.72,4.12-.63,2.56-1,3.76-.8,2.35-1.25,3.45a43.19,43.19,0,0,1-2.18,4.57c-.78,1.4-1.59,2.69-2.41,3.88s-1.67,2.3-2.5,3.31-1.66,2-2.48,2.83a53.27,53.27,0,0,1-4.3,4.13,16.54,16.54,0,0,1-2.89,2.09c-1.06.54-1.88.92-2.72,1.29s-1.69.73-2.85,1.19q1.53-2,2.85-4.06t2.41-4.14q1.11-2.08,2-4.23c.61-1.42,1.16-2.86,1.65-4.31s.93-2.92,1.31-4.4.71-3,1-4.5.52-3,.7-4.61.33-3.13.42-4.73.14-3.23.15-4.88,0-3.34-.13-5-.21-3.46-.39-5.25-.05-3.33-.07-5.09-.06-3.46-.15-5.15-.21-3.34-.37-5-.36-3.23-.59-4.81-.51-3.14-.83-4.67-.67-3-1.07-4.54-.85-3-1.34-4.42-1-2.9-1.63-4.31-1.24-2.82-1.95-4.2-1.47-2.74-2.3-4.08-1.72-2.66-2.68-3.95c1.29.57,2.22,1,3.14,1.51s1.82,1,3,1.67a20.33,20.33,0,0,1,2.53,1.95C431.48,58.76,432.66,59.88,434,61.26Zm9,63c.29-.9.55-1.89.8-3s.45-2.25.62-3.52.31-2.63.39-4.12.1-3.08,0-4.81-.17-3.59-.37-5.59a28.75,28.75,0,0,1,0-3.36c0-1.24,0-2.5-.09-3.77-.08-1.86-.23-3.56-.42-5.12s-.43-3-.7-4.28-.56-2.48-.88-3.56-.65-2-1-2.91a19.42,19.42,0,0,0-2-4,3.8,3.8,0,0,0-1.76-1.61L436,74.25q.7,2.44,1.21,4.85c.35,1.61.63,3.2.87,4.79s.43,3.17.57,4.75.26,3.17.34,4.76.11,3.2.12,4.82a45.54,45.54,0,0,0,0,4.67c.16,1.65.29,3.26.38,4.86s.13,3.17.13,4.73,0,3.13-.12,4.69-.23,3.12-.42,4.7-.43,3.15-.74,4.75-.69,3.21-1.15,4.84l1.41-.27c.59-.12,1.27-.75,2-1.89A21.59,21.59,0,0,0,442.91,124.24Z" style="fill:#ff8c00;stroke:#ccc"/><path d="M147.78,169.29a22.3,22.3,0,0,1-9.07,8.23,26.67,26.67,0,0,1-24.46-.24,22.32,22.32,0,0,1-8.89-8.41,49,49,0,0,0,10.43,4.79,36.78,36.78,0,0,0,21.46.22A48.18,48.18,0,0,0,147.78,169.29Z"/></svg>