<svg id="Capa_1" data-name="Capa 1" xmlns="http://www.w3.org/2000/svg" viewBox="0 0 853 752"><title>LOGO</title><g id="SVGRepo_iconCarrier" data-name="SVGRepo iconCarrier"><path d="M453.15,539.78c65.26,53.77,151,17.76,201.75-38.35a107.14,107.14,0,0,1,13.21-12.08c21.48-1,44.82,1.41,64,12.08,0,0-34.31,25.9-47.35,54.34,0,0,38.47,7.83,68.68-11.19,0,0-3.79,45.45-36,84.74a332,332,0,0,1-32.69,8.16c-198.37,39.09-255.46-73.65-255.46-73.65Z" style="fill:#ff8c00"/><path d="M684.72,555.77c13-28.44,47.35-54.34,47.35-54.34-19.14-10.67-42.48-13.09-64-12.08,56-44.22,159.9-45.89,159.9-45.89s48.66,137-110.59,185.86c32.19-39.29,36-84.74,36-84.74C723.19,563.6,684.72,555.77,684.72,555.77Z" style="fill:#ccc"/><path d="M575,501.86c0,126.56,0,230.55-229.41,229.14H341.4C112,746.71,112,628.42,112,501.86v-3.49C112,371.69,214.69,269,341.37,269h4.25C472.3,269,575,371.7,575,498.38Z" style="fill:#ff8c00"/><path d="M469.58,113.19s59.61-83.58,174.57-83.58c0,0,11.57,108.4-61.89,192.21" style="fill:#ff8c00"/><path d="M470.65,137.62s46.2-64.8,135.32-64.8c0,0,9,84-48,149" style="fill:#ffb6c1"/><path d="M210.24,113.19S150.64,29.61,35.66,29.61c0,0-11.56,108.4,61.9,192.21" style="fill:#ff8c00"/><path d="M209.18,137.62S163,72.82,73.85,72.82c0,0-9,84,48,149" style="fill:#ffb6c1"/><path d="M343.18,66.64s-241.91,0-301,305.39c0,0,226-45.67,301,71.43,60.94-104.91,301-71.43,301-71.43C585.08,66.64,343.18,66.64,343.18,66.64Z" style="fill:#ff8c00"/><path d="M173.26,132.93s35.36,15.75,87.4,91.7c55.28,80.69,42.69,179,42.69,179S236.28,355.23,42.2,372C42.2,372,55.32,220.41,173.26,132.93Z" style="fill:#ccc"/><path d="M514.33,132.93s-35.37,15.75-87.4,91.7c-55.28,80.69-42.7,179-42.7,179S451.3,355.23,645.39,372C645.38,372,632.27,220.41,514.33,132.93Z" style="fill:#ccc"/><circle cx="469.58" cy="259.93" r="25.31"/><circle cx="480.21" cy="255.05" r="9.56" style="fill:#fff"/><circle cx="218" cy="259.93" r="25.31"/><circle cx="227.56" cy="255.05" r="9.56" style="fill:#fff"/><path d="M383,403.66a39.82,39.82,0,0,1-79.63,0"/></g><path d="M412.7,445.27a88.16,88.16,0,0,1-31.4,22.83A93.37,93.37,0,0,1,362.5,474a97.67,97.67,0,0,1-19.68,1.88,98.87,98.87,0,0,1-19.63-2.26,94.11,94.11,0,0,1-18.69-6.31,88.21,88.21,0,0,1-30.93-23.46A112.5,112.5,0,0,0,306,463.75,103.94,103.94,0,0,0,324.15,469a103,103,0,0,0,37.48.38,104.09,104.09,0,0,0,18.22-4.89A112,112,0,0,0,412.7,445.27Z"/></svg>